<!-- Generated by IcoMoon.io -->
<svg version="1.1" xmlns="http://www.w3.org/2000/svg" width="32" height="32" viewBox="0 0 32 32">
<title>3d_rotation</title>
<path d="M16 0c8.375 0 15.25 6.438 15.938 14.625h-2c-0.438-5-3.563-9.188-7.938-11.25l-1.813 1.75-5.063-5.063zM22.063 15.75c0-2.183-0.854-3.563-2.938-3.563h-1.25v7.688h1.188c1.603 0 2.517-0.872 2.875-2.125 0.125-0.438 0.125-0.938 0.125-1.5v-0.5zM19.125 10.688c2.386 0 3.808 1.208 4.5 2.938 0.25 0.625 0.313 1.375 0.313 2.125v0.5c0 1.65-0.473 2.848-1.313 3.688-0.838 0.838-1.91 1.375-3.563 1.375h-3.063v-10.625h3.125zM12.938 15.875c0.956 0.383 1.75 1.14 1.75 2.438 0 0.5-0.125 0.875-0.313 1.25s-0.375 0.75-0.688 1c-0.586 0.469-1.472 0.75-2.5 0.75-1.944 0-3.375-0.984-3.375-2.938h1.688c0 0.966 0.725 1.563 1.688 1.563 1.117 0 1.75-0.534 1.75-1.688 0-1.178-0.775-1.688-1.938-1.688h-1v-1.375h1c1.082 0 1.813-0.502 1.813-1.563 0-1.033-0.553-1.563-1.625-1.563-0.903 0-1.563 0.536-1.563 1.438h-1.75c0-0.931 0.472-1.534 0.938-2 0.62-0.496 1.306-0.813 2.375-0.813 1.603 0 2.524 0.611 3.063 1.688 0.188 0.375 0.25 0.75 0.25 1.25 0 1.137-0.771 1.854-1.563 2.25zM10 28.625l1.813-1.75 5.063 5.063-0.875 0.063c-8.375 0-15.25-6.5-15.938-14.688h2c0.5 5 3.563 9.25 7.938 11.313z"></path>
</svg>
