<!-- Generated by IcoMoon.io -->
<svg version="1.1" xmlns="http://www.w3.org/2000/svg" width="32" height="32" viewBox="0 0 32 32">
<title>account_balance_wallet</title>
<path d="M21.313 18c1.125 0 2-0.875 2-2s-0.875-2-2-2-2 0.875-2 2 0.875 2 2 2zM16 21.313v-10.625h13.313v10.625h-13.313zM28 24v1.313c0 1.438-1.25 2.688-2.688 2.688h-18.625c-1.5 0-2.688-1.25-2.688-2.688v-18.625c0-1.438 1.188-2.688 2.688-2.688h18.625c1.438 0 2.688 1.25 2.688 2.688v1.313h-12c-1.5 0-2.688 1.25-2.688 2.688v10.625c0 1.438 1.188 2.688 2.688 2.688h12z"></path>
</svg>
