<!-- Generated by IcoMoon.io -->
<svg version="1.1" xmlns="http://www.w3.org/2000/svg" width="32" height="32" viewBox="0 0 32 32">
<title>admin</title>
<path d="M24.827 22.618c1.277 0 2.437-1.045 2.437-2.437s-1.045-2.437-2.437-2.437c-1.393 0-2.437 1.045-2.437 2.437-0 1.277 1.16 2.437 2.437 2.437z"></path>
<path d="M24.827 24.475c-1.741 0-5.339 0.928-5.339 2.669v2.205h10.677v-2.205c-0-1.741-3.598-2.669-5.339-2.669z"></path>
<path d="M16.239 7.53c1.393 0 2.437-1.045 2.437-2.437s-1.045-2.437-2.437-2.437c-1.393 0-2.437 1.045-2.437 2.437 0 1.277 1.045 2.437 2.437 2.437z"></path>
<path d="M16.239 9.387c-1.741 0-5.339 0.928-5.339 2.669v2.205h10.677v-2.205c-0-1.741-3.598-2.669-5.339-2.669v0z"></path>
<path d="M7.65 22.618c1.393 0 2.437-1.045 2.437-2.437s-1.045-2.437-2.437-2.437c-1.277 0-2.437 1.045-2.437 2.437 0 1.277 1.045 2.437 2.437 2.437z"></path>
<path d="M7.65 24.475c-1.741 0-5.339 0.928-5.339 2.669v2.205h10.677v-2.205c0-1.741-3.598-2.669-5.339-2.669z"></path>
<path d="M19.721 20.993v2.321h-6.964v-2.321h2.321v-4.41h2.321v4.41z"></path>
</svg>
