<!-- Generated by IcoMoon.io -->
<svg version="1.1" xmlns="http://www.w3.org/2000/svg" width="32" height="32" viewBox="0 0 32 32">
<title>airline_seat_recline_extra</title>
<path d="M21.625 20l7.688 6-2 2-5.063-4h-9.125c-1.938 0-3.563-1.375-3.938-3.25l-1.813-7.875c-0.25-1.625 0.813-3.188 2.438-3.5h0.063c0.949-0.136 1.77 0.128 2.313 0.563l2.188 1.688c1.688 1.313 4.063 2.125 6.25 1.688v2.875c-2.5 0.438-4.75-0.438-6.875-1.625l1.375 5.438h6.5zM21.313 25.313v2.688h-9.375c-3.313 0-6.125-2.375-6.625-5.625l-2.625-13.063h2.625l2.625 12.625c0.313 1.938 2 3.375 4 3.375h9.375zM7.125 7.5c-1.188-0.875-1.438-2.5-0.625-3.688s2.5-1.5 3.688-0.688c1.188 0.875 1.5 2.563 0.688 3.75-0.875 1.188-2.563 1.438-3.75 0.625z"></path>
</svg>
