<!-- Generated by IcoMoon.io -->
<svg version="1.1" xmlns="http://www.w3.org/2000/svg" width="32" height="32" viewBox="0 0 32 32">
<title>airport_shuttle</title>
<path d="M20 14.688h6.688l-5.375-5.375h-1.313v5.375zM23.313 23.313c1.125 0 2-0.875 2-2s-0.875-2-2-2-2 0.875-2 2 0.875 2 2 2zM17.313 14.688v-5.375h-5.313v5.375h5.313zM8 23.313c1.125 0 2-0.875 2-2s-0.875-2-2-2-2 0.875-2 2 0.875 2 2 2zM4 14.688h5.313v-5.375h-5.313v5.375zM22.688 6.688l8 8v6.625h-3.375c0 2.188-1.813 4-4 4s-4-1.813-4-4h-7.313c0 2.188-1.813 4-4 4s-4-1.813-4-4h-2.688v-12c0-1.5 1.25-2.625 2.688-2.625h18.688z"></path>
</svg>
