<!-- Generated by IcoMoon.io -->
<svg version="1.1" xmlns="http://www.w3.org/2000/svg" width="32" height="32" viewBox="0 0 32 32">
<title>alarm_add</title>
<path d="M17.313 12v4h4v2.688h-4v4h-2.625v-4h-4v-2.688h4v-4h2.625zM16 26.688c5.188 0 9.313-4.188 9.313-9.375s-4.125-9.313-9.313-9.313-9.313 4.125-9.313 9.313 4.125 9.375 9.313 9.375zM16 5.313c6.625 0 12 5.375 12 12s-5.375 12-12 12-12-5.375-12-12 5.375-12 12-12zM29.313 7.625l-1.688 2.063-6.125-5.188 1.688-2zM10.5 4.5l-6.125 5.125-1.688-2 6.125-5.125z"></path>
</svg>
