<!-- Generated by IcoMoon.io -->
<svg version="1.1" xmlns="http://www.w3.org/2000/svg" width="32" height="32" viewBox="0 0 32 32">
<title>alarm_off</title>
<path d="M10.688 4.375l-1.125 0.938-1.938-1.875 1.188-0.938zM21.938 24.5l-13.125-13.125c-1.313 1.625-2.125 3.688-2.125 5.938 0 5.188 4.125 9.375 9.313 9.375 2.25 0 4.313-0.875 5.938-2.188zM3.875 3.063c8.205 8.191 16.417 16.374 24.625 24.563l-1.688 1.688-2.938-2.938c-2.125 1.813-4.875 2.938-7.875 2.938-6.625 0-12-5.375-12-12 0-3 1.125-5.688 2.938-7.813l-1.063-1.063-1.5 1.25-1.875-1.938 1.5-1.188-1.813-1.813zM29.313 7.625l-1.688 2.063-6.125-5.188 1.688-2zM16 8c-1.125 0-2.188 0.188-3.188 0.563l-2.063-2c1.563-0.75 3.375-1.25 5.25-1.25 6.625 0 12 5.375 12 12 0 1.875-0.438 3.688-1.188 5.25l-2.063-2c0.375-1 0.563-2.125 0.563-3.25 0-5.188-4.125-9.313-9.313-9.313z"></path>
</svg>
