<!-- Generated by IcoMoon.io -->
<svg version="1.1" xmlns="http://www.w3.org/2000/svg" width="32" height="32" viewBox="0 0 32 32">
<title>all_inclusive</title>
<path d="M24.813 8.813c4 0 7.188 3.25 7.188 7.188s-3.188 7.188-7.188 7.188c-1.938 0-3.75-0.75-5.125-2.125l-1.688-1.5 2-1.75 1.563 1.313c0.938 0.938 2.063 1.375 3.25 1.375 2.5 0 4.5-2 4.5-4.5s-2-4.5-4.5-4.5c-1.188 0-2.313 0.438-3.188 1.313-1.883 1.658-3.78 3.304-5.625 5l-3.75 3.313c-1.313 1.313-3.125 2.063-5.063 2.063-4 0-7.188-3.25-7.188-7.188s3.188-7.188 7.188-7.188c1.938 0 3.75 0.75 5.125 2.125l1.688 1.5-2.063 1.75-1.5-1.313c-0.938-0.938-2.063-1.375-3.25-1.375-2.5 0-4.5 2-4.5 4.5s2 4.5 4.5 4.5c1.188 0 2.313-0.438 3.188-1.313 1.883-1.658 3.78-3.304 5.625-5l3.75-3.313c1.313-1.313 3.125-2.063 5.063-2.063z"></path>
</svg>
