<!-- Generated by IcoMoon.io -->
<svg version="1.1" xmlns="http://www.w3.org/2000/svg" width="32" height="32" viewBox="0 0 32 32">
<title>assignment_turned_in</title>
<path d="M13.313 22.688l10.688-10.688-1.875-1.875-8.813 8.75-3.438-3.438-1.875 1.875zM16 4c-0.75 0-1.313 0.563-1.313 1.313s0.563 1.375 1.313 1.375 1.313-0.625 1.313-1.375-0.563-1.313-1.313-1.313zM25.313 4c1.438 0 2.688 1.25 2.688 2.688v18.625c0 1.438-1.25 2.688-2.688 2.688h-18.625c-1.438 0-2.688-1.25-2.688-2.688v-18.625c0-1.438 1.25-2.688 2.688-2.688h5.563c0.563-1.563 2-2.688 3.75-2.688s3.188 1.125 3.75 2.688h5.563z"></path>
</svg>
