<!-- Generated by IcoMoon.io -->
<svg version="1.1" xmlns="http://www.w3.org/2000/svg" width="32" height="32" viewBox="0 0 32 32">
<title>attach_money</title>
<path d="M15.75 14.563c3 0.813 6.25 2 6.25 5.813 0 2.75-2.063 4.25-4.688 4.75v2.875h-4v-2.875c-2.563-0.563-4.688-2.188-4.875-5.125h2.938c0.125 1.563 1.188 2.813 3.938 2.813 2.938 0 3.625-1.438 3.625-2.375 0-1.25-0.688-2.438-4-3.25-3.75-0.875-6.25-2.438-6.25-5.5 0-2.563 2.063-4.25 4.625-4.813v-2.875h4v2.938c2.813 0.688 4.25 2.75 4.313 5.063h-2.938c-0.063-1.688-1-2.813-3.375-2.813-2.25 0-3.563 1.063-3.563 2.5 0 1.25 1 2.063 4 2.875z"></path>
</svg>
