<!-- Generated by IcoMoon.io -->
<svg version="1.1" xmlns="http://www.w3.org/2000/svg" width="32" height="32" viewBox="0 0 32 32">
<title>battery_unknown</title>
<path d="M19.063 16.938c0.563-0.563 0.938-1.375 0.938-2.25 0-2.188-1.813-4-4-4s-4 1.813-4 4h2c0-1.125 0.875-2 2-2s2 0.875 2 2c0 0.563-0.188 1-0.563 1.375l-1.25 1.25c-0.625 0.625-1.25 1.563-1.25 2.688h2.125c0-0.625 0.5-1.5 1.125-2.125 0.375-0.375 0.875-0.938 0.875-0.938zM17.25 23.938v-2.563h-2.5v2.563h2.5zM20.875 5.313c1 0 1.813 0.813 1.813 1.813v20.438c0 1-0.813 1.75-1.813 1.75h-9.75c-1 0-1.813-0.75-1.813-1.75v-20.438c0-1 0.813-1.813 1.813-1.813h2.188v-2.625h5.375v2.625h2.188z"></path>
</svg>
