<!-- Generated by IcoMoon.io -->
<svg version="1.1" xmlns="http://www.w3.org/2000/svg" width="32" height="32" viewBox="0 0 32 32">
<title>bluetooth_searching</title>
<path d="M17.188 21.75l-2.5-2.563v5.063zM14.688 7.75v5.063l2.5-2.563zM20.938 10.25l-5.75 5.75 5.75 5.75-7.625 7.563h-1.313v-10.125l-6.125 6.125-1.875-1.875 7.438-7.438-7.438-7.438 1.875-1.875 6.125 6.125v-10.125h1.313zM26.063 8.938c1.25 2 1.938 4.438 1.938 6.938 0 2.625-0.75 5-2.063 7.063l-1.563-1.563c0.813-1.625 1.313-3.438 1.313-5.375s-0.5-3.75-1.313-5.375zM19 16l3.063-3.063c0.375 0.938 0.625 2 0.625 3.063s-0.25 2.188-0.625 3.125z"></path>
</svg>
