<!-- Generated by IcoMoon.io -->
<svg version="1.1" xmlns="http://www.w3.org/2000/svg" width="32" height="32" viewBox="0 0 32 32">
<title>blur_off</title>
<path d="M4 18c0.375 0 0.688 0.313 0.688 0.688s-0.313 0.625-0.688 0.625-0.688-0.25-0.688-0.625 0.313-0.688 0.688-0.688zM8 22.688c0.75 0 1.313 0.563 1.313 1.313s-0.563 1.313-1.313 1.313-1.313-0.563-1.313-1.313 0.563-1.313 1.313-1.313zM13.313 27.313c0.375 0 0.688 0.313 0.688 0.688s-0.313 0.688-0.688 0.688-0.625-0.313-0.625-0.688 0.25-0.688 0.625-0.688zM4 12.688c0.375 0 0.688 0.25 0.688 0.625s-0.313 0.688-0.688 0.688-0.688-0.313-0.688-0.688 0.313-0.625 0.688-0.625zM8 17.313c0.75 0 1.313 0.625 1.313 1.375s-0.563 1.313-1.313 1.313-1.313-0.563-1.313-1.313 0.563-1.375 1.313-1.375zM28 18c0.375 0 0.688 0.313 0.688 0.688s-0.313 0.625-0.688 0.625-0.688-0.25-0.688-0.625 0.313-0.688 0.688-0.688zM13.313 22.688c0.75 0 1.375 0.563 1.375 1.313s-0.625 1.313-1.375 1.313-1.313-0.563-1.313-1.313 0.563-1.313 1.313-1.313zM3.313 7l1.688-1.688 21.688 21.688-1.75 1.688-5-5.063c0.063 0.125 0.063 0.25 0.063 0.375 0 0.75-0.563 1.313-1.313 1.313s-1.375-0.563-1.375-1.313 0.625-1.313 1.375-1.313c0.125 0 0.25 0 0.375 0.063l-3.75-3.75c-0.125 0.938-1 1.688-2 1.688-1.125 0-2-0.875-2-2 0-1 0.75-1.875 1.688-2l-3.75-3.75c0.063 0.125 0.063 0.25 0.063 0.375 0 0.75-0.563 1.375-1.313 1.375s-1.313-0.625-1.313-1.375 0.563-1.313 1.313-1.313l0.375 0.063zM18.688 27.313c0.375 0 0.625 0.313 0.625 0.688s-0.25 0.688-0.625 0.688-0.688-0.313-0.688-0.688 0.313-0.688 0.688-0.688zM24 9.313c-0.75 0-1.313-0.563-1.313-1.313s0.563-1.313 1.313-1.313 1.313 0.563 1.313 1.313-0.563 1.313-1.313 1.313zM24 14.688c-0.75 0-1.313-0.625-1.313-1.375s0.563-1.313 1.313-1.313 1.313 0.563 1.313 1.313-0.563 1.375-1.313 1.375zM24 20c-0.75 0-1.313-0.563-1.313-1.313s0.563-1.375 1.313-1.375 1.313 0.625 1.313 1.375-0.563 1.313-1.313 1.313zM13.313 9.313c-0.75 0-1.313-0.563-1.313-1.313s0.563-1.313 1.313-1.313 1.375 0.563 1.375 1.313-0.625 1.313-1.375 1.313zM28 14c-0.375 0-0.688-0.313-0.688-0.688s0.313-0.625 0.688-0.625 0.688 0.25 0.688 0.625-0.313 0.688-0.688 0.688zM13.313 4.688c-0.375 0-0.625-0.313-0.625-0.688s0.25-0.688 0.625-0.688 0.688 0.313 0.688 0.688-0.313 0.688-0.688 0.688zM18.688 4.688c-0.375 0-0.688-0.313-0.688-0.688s0.313-0.688 0.688-0.688 0.625 0.313 0.625 0.688-0.25 0.688-0.625 0.688zM18.375 15.313c-0.875-0.125-1.563-0.813-1.688-1.688v-0.313c0-1.125 0.875-2 2-2s2 0.875 2 2-0.875 2-2 2h-0.313zM18.688 9.313c-0.75 0-1.375-0.563-1.375-1.313s0.625-1.313 1.375-1.313 1.313 0.563 1.313 1.313-0.563 1.313-1.313 1.313z"></path>
</svg>
