<!-- Generated by IcoMoon.io -->
<svg version="1.1" xmlns="http://www.w3.org/2000/svg" width="32" height="32" viewBox="0 0 32 32">
<title>blur_on</title>
<path d="M18.688 11.313c1.125 0 2 0.875 2 2s-0.875 2-2 2-2-0.875-2-2 0.875-2 2-2zM18.688 16.688c1.125 0 2 0.875 2 2s-0.875 2-2 2-2-0.875-2-2 0.875-2 2-2zM13.313 22.688c0.75 0 1.375 0.563 1.375 1.313s-0.625 1.313-1.375 1.313-1.313-0.563-1.313-1.313 0.563-1.313 1.313-1.313zM13.313 11.313c1.125 0 2 0.875 2 2s-0.875 2-2 2-2-0.875-2-2 0.875-2 2-2zM18.688 27.313c0.375 0 0.625 0.313 0.625 0.688s-0.25 0.688-0.625 0.688-0.688-0.313-0.688-0.688 0.313-0.688 0.688-0.688zM18.688 22.688c0.75 0 1.313 0.563 1.313 1.313s-0.563 1.313-1.313 1.313-1.375-0.563-1.375-1.313 0.625-1.313 1.375-1.313zM28 18c0.375 0 0.688 0.313 0.688 0.688s-0.313 0.625-0.688 0.625-0.688-0.25-0.688-0.625 0.313-0.688 0.688-0.688zM24 6.688c0.75 0 1.313 0.563 1.313 1.313s-0.563 1.313-1.313 1.313-1.313-0.563-1.313-1.313 0.563-1.313 1.313-1.313zM24 12c0.75 0 1.313 0.563 1.313 1.313s-0.563 1.375-1.313 1.375-1.313-0.625-1.313-1.375 0.563-1.313 1.313-1.313zM24 22.688c0.75 0 1.313 0.563 1.313 1.313s-0.563 1.313-1.313 1.313-1.313-0.563-1.313-1.313 0.563-1.313 1.313-1.313zM24 17.313c0.75 0 1.313 0.625 1.313 1.375s-0.563 1.313-1.313 1.313-1.313-0.563-1.313-1.313 0.563-1.375 1.313-1.375zM13.313 16.688c1.125 0 2 0.875 2 2s-0.875 2-2 2-2-0.875-2-2 0.875-2 2-2zM13.313 9.313c-0.75 0-1.313-0.563-1.313-1.313s0.563-1.313 1.313-1.313 1.375 0.563 1.375 1.313-0.625 1.313-1.375 1.313zM13.313 4.688c-0.375 0-0.625-0.313-0.625-0.688s0.25-0.688 0.625-0.688 0.688 0.313 0.688 0.688-0.313 0.688-0.688 0.688zM13.313 27.313c0.375 0 0.688 0.313 0.688 0.688s-0.313 0.688-0.688 0.688-0.625-0.313-0.625-0.688 0.25-0.688 0.625-0.688zM4 18c0.375 0 0.688 0.313 0.688 0.688s-0.313 0.625-0.688 0.625-0.688-0.25-0.688-0.625 0.313-0.688 0.688-0.688zM18.688 4.688c-0.375 0-0.688-0.313-0.688-0.688s0.313-0.688 0.688-0.688 0.625 0.313 0.625 0.688-0.25 0.688-0.625 0.688zM18.688 9.313c-0.75 0-1.375-0.563-1.375-1.313s0.625-1.313 1.375-1.313 1.313 0.563 1.313 1.313-0.563 1.313-1.313 1.313zM28 14c-0.375 0-0.688-0.313-0.688-0.688s0.313-0.625 0.688-0.625 0.688 0.25 0.688 0.625-0.313 0.688-0.688 0.688zM8 6.688c0.75 0 1.313 0.563 1.313 1.313s-0.563 1.313-1.313 1.313-1.313-0.563-1.313-1.313 0.563-1.313 1.313-1.313zM4 12.688c0.375 0 0.688 0.25 0.688 0.625s-0.313 0.688-0.688 0.688-0.688-0.313-0.688-0.688 0.313-0.625 0.688-0.625zM8 12c0.75 0 1.313 0.563 1.313 1.313s-0.563 1.375-1.313 1.375-1.313-0.625-1.313-1.375 0.563-1.313 1.313-1.313zM8 22.688c0.75 0 1.313 0.563 1.313 1.313s-0.563 1.313-1.313 1.313-1.313-0.563-1.313-1.313 0.563-1.313 1.313-1.313zM8 17.313c0.75 0 1.313 0.625 1.313 1.375s-0.563 1.313-1.313 1.313-1.313-0.563-1.313-1.313 0.563-1.375 1.313-1.375z"></path>
</svg>
