<!-- Generated by IcoMoon.io -->
<svg version="1.1" xmlns="http://www.w3.org/2000/svg" width="32" height="32" viewBox="0 0 32 32">
<title>border_bottom</title>
<path d="M6.688 20v2.688h-2.688v-2.688h2.688zM4 28v-2.688h24v2.688h-24zM6.688 14.688v2.625h-2.688v-2.625h2.688zM25.313 12v-2.688h2.688v2.688h-2.688zM25.313 4h2.688v2.688h-2.688v-2.688zM6.688 9.313v2.688h-2.688v-2.688h2.688zM25.313 22.688v-2.688h2.688v2.688h-2.688zM25.313 17.313v-2.625h2.688v2.625h-2.688zM22.688 4v2.688h-2.688v-2.688h2.688zM17.313 4v2.688h-2.625v-2.688h2.625zM22.688 14.688v2.625h-2.688v-2.625h2.688zM17.313 9.313v2.688h-2.625v-2.688h2.625zM6.688 4v2.688h-2.688v-2.688h2.688zM17.313 14.688v2.625h-2.625v-2.625h2.625zM12 4v2.688h-2.688v-2.688h2.688zM17.313 20v2.688h-2.625v-2.688h2.625zM12 14.688v2.625h-2.688v-2.625h2.688z"></path>
</svg>
