<!-- Generated by IcoMoon.io -->
<svg version="1.1" xmlns="http://www.w3.org/2000/svg" width="32" height="32" viewBox="0 0 32 32">
<title>bubble_chart</title>
<path d="M13.875 11.75c0-3.563 2.813-6.438 6.375-6.438s6.438 2.875 6.438 6.438-2.875 6.375-6.438 6.375-6.375-2.813-6.375-6.375zM17.063 24c0-1.5 1.188-2.688 2.688-2.688s2.625 1.188 2.625 2.688-1.125 2.688-2.625 2.688-2.688-1.188-2.688-2.688zM5.313 19.188c0-2.375 1.938-4.25 4.313-4.25s4.25 1.875 4.25 4.25-1.875 4.25-4.25 4.25-4.313-1.875-4.313-4.25z"></path>
</svg>
