<!-- Generated by IcoMoon.io -->
<svg version="1.1" xmlns="http://www.w3.org/2000/svg" width="32" height="32" viewBox="0 0 32 32">
<title>cake</title>
<path d="M24 12c2.188 0 4 1.813 4 4v2.063c0 1.438-1.188 2.625-2.625 2.625-0.688 0-1.313-0.25-1.813-0.75l-2.875-2.875-2.875 2.875c-1 1-2.688 1-3.688 0l-2.813-2.875-2.875 2.875c-0.5 0.5-1.125 0.75-1.813 0.75-1.438 0-2.625-1.188-2.625-2.625v-2.063c0-2.188 1.813-4 4-4h6.688v-2.688h2.625v2.688h6.688zM22.125 21.313c0.875 0.875 2 1.375 3.25 1.375 1 0 1.875-0.313 2.625-0.813v6.125c0 0.75-0.563 1.313-1.313 1.313h-21.375c-0.75 0-1.313-0.563-1.313-1.313v-6.125c0.75 0.5 1.625 0.813 2.625 0.813 1.25 0 2.375-0.5 3.25-1.375l1.438-1.438 1.438 1.438c1.75 1.75 4.75 1.75 6.5 0l1.438-1.438zM16 8c-1.438 0-2.688-1.25-2.688-2.688 0-0.5 0.188-1 0.438-1.375l2.25-3.938 2.25 3.938c0.25 0.375 0.438 0.875 0.438 1.375 0 1.438-1.188 2.688-2.688 2.688z"></path>
</svg>
