<!-- Generated by IcoMoon.io -->
<svg version="1.1" xmlns="http://www.w3.org/2000/svg" width="32" height="32" viewBox="0 0 32 32">
<title>camera</title>
<path d="M13.125 29c2.147-3.707 4.265-7.443 6.438-11.125l4.875 8.438c-2.313 1.875-5.25 3-8.438 3-1 0-1.938-0.125-2.875-0.313zM3.25 20h12.938l-4.938 8.438c-3.813-1.438-6.75-4.563-8-8.438zM6.188 7c2.25 3.896 4.487 7.805 6.75 11.688h-10c-0.188-0.875-0.25-1.75-0.25-2.688 0-3.5 1.313-6.625 3.5-9zM29.063 13.313c0.188 0.875 0.25 1.75 0.25 2.688 0 3.5-1.313 6.625-3.5 9l-6.375-11-0.375-0.688h10zM28.75 12h-12.938l4.938-8.438c3.813 1.438 6.75 4.563 8 8.438zM12.563 14l-0.125 0.125-4.875-8.438c2.313-1.875 5.25-3 8.438-3 1 0 1.938 0.125 2.875 0.313z"></path>
</svg>
