<!-- Generated by IcoMoon.io -->
<svg version="1.1" xmlns="http://www.w3.org/2000/svg" width="32" height="32" viewBox="0 0 32 32">
<title>camera_enhance</title>
<path d="M16 22.688l-1.688-3.688-3.625-1.688 3.625-1.625 1.688-3.688 1.688 3.688 3.625 1.625-3.625 1.688zM16 24c3.688 0 6.688-3 6.688-6.688s-3-6.625-6.688-6.625-6.688 2.938-6.688 6.625 3 6.688 6.688 6.688zM12 4h8l2.438 2.688h4.25c1.438 0 2.625 1.188 2.625 2.625v16c0 1.438-1.188 2.688-2.625 2.688h-21.375c-1.438 0-2.625-1.25-2.625-2.688v-16c0-1.438 1.188-2.625 2.625-2.625h4.25z"></path>
</svg>
