<!-- Generated by IcoMoon.io -->
<svg version="1.1" xmlns="http://www.w3.org/2000/svg" width="32" height="32" viewBox="0 0 32 32">
<title>camera_rear</title>
<path d="M16 8c1.438 0 2.625-1.25 2.625-2.688s-1.188-2.625-2.625-2.625-2.688 1.188-2.688 2.625 1.188 2.688 2.688 2.688zM22.688 0c1.438 0 2.625 1.25 2.625 2.688v18.625c0 1.438-1.188 2.688-2.625 2.688h-9.375l4 4-4 4v-2.688h-6.625v-2.625h6.625v-2.688h-4c-1.438 0-2.625-1.25-2.625-2.688v-18.625c0-1.438 1.188-2.688 2.625-2.688h13.375zM18.688 26.688h6.625v2.625h-6.625v-2.625z"></path>
</svg>
