<!-- Generated by IcoMoon.io -->
<svg version="1.1" xmlns="http://www.w3.org/2000/svg" width="32" height="32" viewBox="0 0 32 32">
<title>card_travel</title>
<path d="M26.688 18.688v-8h-4v2.625h-2.688v-2.625h-8v2.625h-2.688v-2.625h-4v8h21.375zM26.688 25.313v-2.625h-21.375v2.625h21.375zM12 5.313v2.688h8v-2.688h-8zM26.688 8c1.5 0 2.625 1.188 2.625 2.688v14.625c0 1.5-1.125 2.688-2.625 2.688h-21.375c-1.5 0-2.625-1.188-2.625-2.688v-14.625c0-1.5 1.125-2.688 2.625-2.688h4v-2.688c0-1.5 1.188-2.625 2.688-2.625h8c1.5 0 2.688 1.125 2.688 2.625v2.688h4z"></path>
</svg>
