<!-- Generated by IcoMoon.io -->
<svg version="1.1" xmlns="http://www.w3.org/2000/svg" width="32" height="32" viewBox="0 0 32 32">
<title>cast</title>
<path d="M1.313 13.313c8.063 0 14.688 6.563 14.688 14.688h-2.688c0-6.625-5.375-12-12-12v-2.688zM1.313 18.688c5.188 0 9.375 4.125 9.375 9.313h-2.688c0-3.688-3-6.688-6.688-6.688v-2.625zM1.313 24c2.188 0 4 1.813 4 4h-4v-4zM28 4c1.438 0 2.688 1.25 2.688 2.688v18.625c0 1.438-1.25 2.688-2.688 2.688h-9.313v-2.688h9.313v-18.625h-24v4h-2.688v-4c0-1.438 1.25-2.688 2.688-2.688h24z"></path>
</svg>
