<!-- Generated by IcoMoon.io -->
<svg version="1.1" xmlns="http://www.w3.org/2000/svg" width="32" height="32" viewBox="0 0 32 32">
<title>center_focus_weak</title>
<path d="M16 18.688c1.438 0 2.688-1.25 2.688-2.688s-1.25-2.688-2.688-2.688-2.688 1.25-2.688 2.688 1.25 2.688 2.688 2.688zM16 10.688c2.938 0 5.313 2.375 5.313 5.313s-2.375 5.313-5.313 5.313-5.313-2.375-5.313-5.313 2.375-5.313 5.313-5.313zM25.313 25.313v-5.313h2.688v5.313c0 1.438-1.25 2.688-2.688 2.688h-5.313v-2.688h5.313zM25.313 4c1.438 0 2.688 1.25 2.688 2.688v5.313h-2.688v-5.313h-5.313v-2.688h5.313zM6.688 6.688v5.313h-2.688v-5.313c0-1.438 1.25-2.688 2.688-2.688h5.313v2.688h-5.313zM6.688 20v5.313h5.313v2.688h-5.313c-1.438 0-2.688-1.25-2.688-2.688v-5.313h2.688z"></path>
</svg>
