<!-- Generated by IcoMoon.io -->
<svg version="1.1" xmlns="http://www.w3.org/2000/svg" width="32" height="32" viewBox="0 0 32 32">
<title>child_care</title>
<path d="M10 18.688h12c-1 2.375-3.313 4-6 4s-5-1.625-6-4zM16 25.313c4.25 0 7.827-2.801 8.938-6.688 0.125 0 0.25 0.063 0.375 0.063 1.438 0 2.688-1.25 2.688-2.688s-1.25-2.688-2.688-2.688c-0.125 0-0.25 0.063-0.375 0.063-1.11-3.886-4.687-6.688-8.938-6.688s-7.827 2.801-8.938 6.688c-0.125 0-0.25-0.063-0.375-0.063-1.438 0-2.688 1.25-2.688 2.688s1.25 2.688 2.688 2.688c0.125 0 0.25-0.063 0.375-0.063 1.11 3.886 4.687 6.688 8.938 6.688zM30.563 16.875c-0.313 2-1.75 3.688-3.688 4.25-1.767 3.694-5.927 6.875-10.875 6.875-4.93 0-9.095-3.128-10.813-6.875-1.938-0.563-3.438-2.25-3.75-4.25-0.063-0.25-0.125-0.563-0.125-0.875s0.063-0.625 0.125-0.875c0.313-2 1.813-3.688 3.75-4.25 0.688-1.5 1.625-2.813 2.875-3.875 2.125-1.875 4.875-3 7.938-3 5.018 0 9.069 3.072 10.813 6.875 1.938 0.563 3.438 2.25 3.75 4.25 0.063 0.25 0.125 0.563 0.125 0.875s-0.063 0.625-0.125 0.875zM11 14c0-0.938 0.75-1.688 1.688-1.688s1.625 0.75 1.625 1.688-0.688 1.688-1.625 1.688-1.688-0.75-1.688-1.688zM17.688 14c0-0.938 0.688-1.688 1.625-1.688s1.688 0.75 1.688 1.688-0.75 1.688-1.688 1.688-1.625-0.75-1.625-1.688z"></path>
</svg>
