<!-- Generated by IcoMoon.io -->
<svg version="1.1" xmlns="http://www.w3.org/2000/svg" width="32" height="32" viewBox="0 0 32 32">
<title>child_friendly</title>
<path d="M22.688 26.688c1.125 0 2-0.875 2-2s-0.875-2-2-2-2 0.875-2 2 0.875 2 2 2zM10.688 26.688c1.125 0 2-0.875 2-2s-0.875-2-2-2-2 0.875-2 2 0.875 2 2 2zM25.75 21.188c0.938 0.875 1.563 2.125 1.563 3.5 0 2.563-2.063 4.625-4.625 4.625-2.375 0-4.313-1.75-4.625-4h-2.813c-0.313 2.25-2.188 4-4.563 4-2.563 0-4.688-2.063-4.688-4.625 0-1.75 1-3.313 2.438-4.125-0.313-0.438-2.813-5.875-2.813-5.875h-2.938v-2.688h4.625l1.25 2.688h19.438c0 2.438-0.875 4.688-2.25 6.5zM17.313 2.688c5.875 0 10.688 4.75 10.688 10.625h-10.688v-10.625z"></path>
</svg>
