<!-- Generated by IcoMoon.io -->
<svg version="1.1" xmlns="http://www.w3.org/2000/svg" width="32" height="32" viewBox="0 0 32 32">
<title>cloud_off</title>
<path d="M10.313 13.313h-2.313c-2.938 0-5.313 2.438-5.313 5.375s2.375 5.313 5.313 5.313h13zM4 7l1.688-1.688 22.313 22.313-1.688 1.688-2.688-2.625h-15.625c-4.438 0-8-3.563-8-8 0-4.313 3.438-7.813 7.688-8zM25.813 13.375c3.438 0.25 6.188 3.125 6.188 6.625 0 2.25-1.125 4.25-2.813 5.438l-1.938-1.938c1.25-0.688 2.063-2 2.063-3.5 0-2.188-1.813-4-4-4h-2v-0.688c0-4.063-3.25-7.313-7.313-7.313-1.25 0-2.375 0.25-3.375 0.813l-2-1.938c1.563-1 3.375-1.563 5.375-1.563 4.875 0 8.875 3.438 9.813 8.063z"></path>
</svg>
