<!-- Generated by IcoMoon.io -->
<svg version="1.1" xmlns="http://www.w3.org/2000/svg" width="32" height="32" viewBox="0 0 32 32">
<title>cloud_queue</title>
<path d="M25.313 24c2.188 0 4-1.813 4-4s-1.813-4-4-4h-2v-0.688c0-4.063-3.25-7.313-7.313-7.313-3.375 0-6.188 2.25-7.063 5.313h-0.938c-2.938 0-5.313 2.438-5.313 5.375s2.375 5.313 5.313 5.313h17.313zM25.813 13.375c3.438 0.25 6.188 3.125 6.188 6.625 0 3.688-3 6.688-6.688 6.688h-17.313c-4.438 0-8-3.563-8-8 0-4.125 3.125-7.5 7.125-7.938 1.688-3.188 5-5.438 8.875-5.438 4.875 0 8.875 3.438 9.813 8.063z"></path>
</svg>
