<!-- Generated by IcoMoon.io -->
<svg version="1.1" xmlns="http://www.w3.org/2000/svg" width="32" height="32" viewBox="0 0 32 32">
<title>control_point_duplicate</title>
<path d="M20 25.313c5.125 0 9.313-4.188 9.313-9.313s-4.188-9.313-9.313-9.313-9.313 4.188-9.313 9.313 4.188 9.313 9.313 9.313zM20 4c6.625 0 12 5.375 12 12s-5.375 12-12 12-12-5.375-12-12 5.375-12 12-12zM2.688 16c0 3.75 2.125 6.938 5.313 8.438v2.875c-4.625-1.625-8-6.125-8-11.313s3.375-9.688 8-11.313v2.875c-3.188 1.5-5.313 4.688-5.313 8.438zM21.313 10.688v4h4v2.625h-4v4h-2.625v-4h-4v-2.625h4v-4h2.625z"></path>
</svg>
