<!-- Generated by IcoMoon.io -->
<svg version="1.1" xmlns="http://www.w3.org/2000/svg" width="32" height="32" viewBox="0 0 32 32">
<title>content_cut</title>
<path d="M25.313 4h4v1.313l-9.313 9.375-2.688-2.688zM16 16.688c0.375 0 0.688-0.313 0.688-0.688s-0.313-0.688-0.688-0.688-0.688 0.313-0.688 0.688 0.313 0.688 0.688 0.688zM8 26.688c1.438 0 2.688-1.188 2.688-2.688s-1.25-2.688-2.688-2.688-2.688 1.188-2.688 2.688 1.25 2.688 2.688 2.688zM8 10.688c1.438 0 2.688-1.188 2.688-2.688s-1.25-2.688-2.688-2.688-2.688 1.188-2.688 2.688 1.25 2.688 2.688 2.688zM12.875 10.188l16.438 16.5v1.313h-4l-9.313-9.313-3.125 3.125c0.313 0.688 0.438 1.375 0.438 2.188 0 2.938-2.375 5.313-5.313 5.313s-5.313-2.375-5.313-5.313 2.375-5.313 5.313-5.313c0.813 0 1.5 0.125 2.188 0.438l3.125-3.125-3.125-3.125c-0.688 0.313-1.375 0.438-2.188 0.438-2.938 0-5.313-2.375-5.313-5.313s2.375-5.313 5.313-5.313 5.313 2.375 5.313 5.313c0 0.813-0.125 1.5-0.438 2.188z"></path>
</svg>
