<!-- Generated by IcoMoon.io -->
<svg version="1.1" xmlns="http://www.w3.org/2000/svg" width="32" height="32" viewBox="0 0 32 32">
<title>directions_walk</title>
<path d="M13.063 11.875l-3.75 18.813h2.813l2.438-10.688 2.75 2.688v8h2.688v-10l-2.813-2.688 0.813-4c1.75 2 4.375 3.313 7.313 3.313v-2.625c-2.563 0-4.625-1.375-5.688-3.25l-1.375-2.125c-0.563-0.813-1.313-1.313-2.25-1.313-0.375 0-0.688 0.125-1.063 0.125l-6.938 2.938v6.25h2.688v-4.5l2.375-0.938zM18 7.313c-1.438 0-2.688-1.188-2.688-2.625s1.25-2.688 2.688-2.688 2.688 1.25 2.688 2.688-1.25 2.625-2.688 2.625z"></path>
</svg>
