<!-- Generated by IcoMoon.io -->
<svg version="1.1" xmlns="http://www.w3.org/2000/svg" width="32" height="32" viewBox="0 0 32 32">
<title>directions_car</title>
<path d="M6.688 14.688h18.625l-2-6h-14.625zM23.313 21.313c1.125 0 2-0.875 2-2s-0.875-2-2-2-2 0.875-2 2 0.875 2 2 2zM8.688 21.313c1.125 0 2-0.875 2-2s-0.875-2-2-2-2 0.875-2 2 0.875 2 2 2zM25.25 8l2.75 8v10.688c0 0.75-0.563 1.313-1.313 1.313h-1.375c-0.75 0-1.313-0.563-1.313-1.313v-1.375h-16v1.375c0 0.75-0.563 1.313-1.313 1.313h-1.375c-0.75 0-1.313-0.563-1.313-1.313v-10.688l2.75-8c0.25-0.813 1.063-1.313 1.938-1.313h14.625c0.875 0 1.688 0.5 1.938 1.313z"></path>
</svg>
