<!-- Generated by IcoMoon.io -->
<svg version="1.1" xmlns="http://www.w3.org/2000/svg" width="32" height="32" viewBox="0 0 32 32">
<title>directions_bike</title>
<path d="M25.313 27.313c2.563 0 4.688-2.063 4.688-4.625s-2.125-4.688-4.688-4.688-4.625 2.125-4.625 4.688 2.063 4.625 4.625 4.625zM25.313 16c3.75 0 6.688 2.938 6.688 6.688s-2.938 6.625-6.688 6.625-6.625-2.875-6.625-6.625 2.875-6.688 6.625-6.688zM14.375 14l2.938 3.063v8.25h-2.625v-6.625l-4.313-3.75c-0.563-0.375-0.75-1.063-0.75-1.875 0-0.688 0.188-1.313 0.75-1.875l3.75-3.75c0.375-0.563 1.063-0.75 1.875-0.75s1.438 0.188 2.125 0.75l2.563 2.563c1.188 1.188 2.75 2 4.75 2v2.688c-2.813 0-5-1.063-6.75-2.813l-1.063-1.063zM6.688 27.313c2.563 0 4.625-2.063 4.625-4.625s-2.063-4.688-4.625-4.688-4.688 2.125-4.688 4.688 2.125 4.625 4.688 4.625zM6.688 16c3.75 0 6.625 2.938 6.625 6.688s-2.875 6.625-6.625 6.625-6.688-2.875-6.688-6.625 2.938-6.688 6.688-6.688zM20.688 7.313c-1.438 0-2.688-1.188-2.688-2.625s1.25-2.688 2.688-2.688 2.625 1.25 2.625 2.688-1.188 2.625-2.625 2.625z"></path>
</svg>
