<!-- Generated by IcoMoon.io -->
<svg version="1.1" xmlns="http://www.w3.org/2000/svg" width="32" height="32" viewBox="0 0 32 32">
<title>directions_boat</title>
<path d="M8 8v5.313l8-2.625 8 2.625v-5.313h-16zM5.25 25.313l-2.5-8.875c-0.299-0.897 0.249-1.479 0.875-1.688l1.688-0.563v-6.188c0-1.438 1.25-2.688 2.688-2.688h4v-4h8v4h4c1.438 0 2.688 1.25 2.688 2.688v6.188l1.688 0.563c0.626 0.209 1.174 0.79 0.875 1.688l-2.5 8.875h-0.063c-2.125 0-4.063-1.125-5.375-2.625-1.313 1.5-3.188 2.625-5.313 2.625s-4-1.125-5.313-2.625c-1.313 1.5-3.25 2.625-5.375 2.625h-0.063zM26.688 28h2.625v2.688h-2.625c-1.813 0-3.688-0.438-5.375-1.313-3.375 1.75-7.25 1.75-10.625 0-1.688 0.875-3.563 1.313-5.375 1.313h-2.625v-2.688h2.625c1.875 0 3.75-0.625 5.375-1.75 3.25 2.25 7.375 2.25 10.625 0 1.625 1.125 3.5 1.75 5.375 1.75z"></path>
</svg>
