<!-- Generated by IcoMoon.io -->
<svg version="1.1" xmlns="http://www.w3.org/2000/svg" width="32" height="32" viewBox="0 0 32 32">
<title>dvr</title>
<path d="M9.313 16v2.688h-2.625v-2.688h2.625zM9.313 10.688v2.625h-2.625v-2.625h2.625zM25.313 16v2.688h-14.625v-2.688h14.625zM25.313 10.688v2.625h-14.625v-2.625h14.625zM28 22.688v-16h-24v16h24zM28 4c1.438 0 2.688 1.25 2.688 2.688l-0.063 16c0 1.438-1.188 2.625-2.625 2.625h-6.688v2.688h-10.625v-2.688h-6.688c-1.438 0-2.688-1.188-2.688-2.625v-16c0-1.438 1.25-2.688 2.688-2.688h24z"></path>
</svg>
