<!-- Generated by IcoMoon.io -->
<svg version="1.1" xmlns="http://www.w3.org/2000/svg" width="32" height="32" viewBox="0 0 32 32">
<title>exposure_neg_2</title>
<path d="M2.688 14.688h10.625v2.625h-10.625v-2.625zM21.938 6.688c3.23 0 5.375 1.465 5.375 4.688 0 0.5-0.063 1.063-0.25 1.563s-0.375 1.063-0.688 1.563c-0.685 1.096-1.569 2.194-2.5 3.125l-3.813 4.125h7.938v2.25h-11.5v-2l5.563-6.063c0.845-0.845 1.39-1.587 1.938-2.5 0.317-0.529 0.438-0.97 0.438-1.75 0-0.375 0-0.813-0.125-1.125-0.372-0.931-1.072-1.625-2.375-1.625-1.902 0-2.875 1.154-2.875 3.063h-2.875c0-1.604 0.647-2.897 1.5-3.75 0.981-0.981 2.303-1.563 4.25-1.563z"></path>
</svg>
