<!-- Generated by IcoMoon.io -->
<svg version="1.1" xmlns="http://www.w3.org/2000/svg" width="32" height="32" viewBox="0 0 32 32">
<title>exposure_plus_2</title>
<path d="M10.688 9.313v5.375h5.313v2.625h-5.313v5.375h-2.688v-5.375h-5.313v-2.625h5.313v-5.375h2.688zM21.375 21.75h7.938v2.25h-11.5v-2l5.563-6.063c0.845-0.845 1.39-1.587 1.938-2.5 0.302-0.503 0.5-1.043 0.5-1.75 0-0.874-0.312-1.436-0.688-1.938-0.399-0.532-0.94-0.813-1.875-0.813-0.963 0-1.709 0.396-2.188 0.875-0.437 0.437-0.688 1.357-0.688 2.188h-2.875c0-1.604 0.647-2.897 1.5-3.75 0.5-0.5 1.063-0.938 1.813-1.188s1.563-0.375 2.5-0.375c0.875 0 1.563 0.125 2.25 0.313 0.625 0.25 1.25 0.5 1.688 0.938 0.838 0.718 1.438 1.937 1.438 3.438 0 1.264-0.46 2.261-1 3.125-0.313 0.5-0.625 1.063-1.063 1.563s-0.938 1.063-1.438 1.563z"></path>
</svg>
