<!-- Generated by IcoMoon.io -->
<svg version="1.1" xmlns="http://www.w3.org/2000/svg" width="32" height="32" viewBox="0 0 32 32">
<title>face</title>
<path d="M16 26.688c5.875 0 10.688-4.813 10.688-10.688 0-1.063-0.188-2.063-0.438-3-0.938 0.25-1.938 0.313-3 0.313-4.5 0-8.438-2.188-10.875-5.625-1.313 3.188-3.875 5.813-7 7.188-0.063 0.375-0.063 0.75-0.063 1.125 0 5.875 4.813 10.688 10.688 10.688zM16 2.688c7.375 0 13.313 5.938 13.313 13.313s-5.938 13.313-13.313 13.313-13.313-5.938-13.313-13.313 5.938-13.313 13.313-13.313zM20 15.688c0.938 0 1.688 0.688 1.688 1.625s-0.75 1.688-1.688 1.688-1.688-0.75-1.688-1.688 0.75-1.625 1.688-1.625zM12 15.688c0.938 0 1.688 0.688 1.688 1.625s-0.75 1.688-1.688 1.688-1.688-0.75-1.688-1.688 0.75-1.625 1.688-1.625z"></path>
</svg>
