<!-- Generated by IcoMoon.io -->
<svg version="1.1" xmlns="http://www.w3.org/2000/svg" width="32" height="32" viewBox="0 0 32 32">
<title>favorite_border</title>
<path d="M16.125 24.75c6.375-5.75 10.563-9.563 10.563-13.438 0-2.688-2-4.625-4.688-4.625-2.063 0-4.063 1.313-4.75 3.125h-2.5c-0.688-1.813-2.688-3.125-4.75-3.125-2.688 0-4.688 1.938-4.688 4.625 0 3.875 4.188 7.688 10.563 13.438l0.125 0.125zM22 4c4.125 0 7.313 3.188 7.313 7.313 0 5.063-4.5 9.125-11.375 15.375l-1.938 1.75-1.938-1.688c-6.875-6.25-11.375-10.375-11.375-15.438 0-4.125 3.188-7.313 7.313-7.313 2.313 0 4.563 1.125 6 2.813 1.438-1.688 3.688-2.813 6-2.813z"></path>
</svg>
