<!-- Generated by IcoMoon.io -->
<svg version="1.1" xmlns="http://www.w3.org/2000/svg" width="32" height="32" viewBox="0 0 32 32">
<title>grain</title>
<path d="M13.313 5.313c1.438 0 2.688 1.25 2.688 2.688s-1.25 2.688-2.688 2.688-2.625-1.25-2.625-2.688 1.188-2.688 2.625-2.688zM18.688 10.688c1.438 0 2.625 1.188 2.625 2.625s-1.188 2.688-2.625 2.688-2.688-1.25-2.688-2.688 1.25-2.625 2.688-2.625zM24 16c1.438 0 2.688 1.25 2.688 2.688s-1.25 2.625-2.688 2.625-2.688-1.188-2.688-2.625 1.25-2.688 2.688-2.688zM18.688 21.313c1.438 0 2.625 1.25 2.625 2.688s-1.188 2.688-2.625 2.688-2.688-1.25-2.688-2.688 1.25-2.688 2.688-2.688zM24 10.688c-1.438 0-2.688-1.25-2.688-2.688s1.25-2.688 2.688-2.688 2.688 1.25 2.688 2.688-1.25 2.688-2.688 2.688zM8 21.313c1.438 0 2.688 1.25 2.688 2.688s-1.25 2.688-2.688 2.688-2.688-1.25-2.688-2.688 1.25-2.688 2.688-2.688zM8 10.688c1.438 0 2.688 1.188 2.688 2.625s-1.25 2.688-2.688 2.688-2.688-1.25-2.688-2.688 1.25-2.625 2.688-2.625zM13.313 16c1.438 0 2.688 1.25 2.688 2.688s-1.25 2.625-2.688 2.625-2.625-1.188-2.625-2.625 1.188-2.688 2.625-2.688z"></path>
</svg>
