<!-- Generated by IcoMoon.io -->
<svg version="1.1" xmlns="http://www.w3.org/2000/svg" width="32" height="32" viewBox="0 0 32 32">
<title>grid_on</title>
<path d="M26.688 10.688v-5.375h-5.375v5.375h5.375zM26.688 18.688v-5.375h-5.375v5.375h5.375zM26.688 26.688v-5.375h-5.375v5.375h5.375zM18.688 10.688v-5.375h-5.375v5.375h5.375zM18.688 18.688v-5.375h-5.375v5.375h5.375zM18.688 26.688v-5.375h-5.375v5.375h5.375zM10.688 10.688v-5.375h-5.375v5.375h5.375zM10.688 18.688v-5.375h-5.375v5.375h5.375zM10.688 26.688v-5.375h-5.375v5.375h5.375zM26.688 2.688c1.438 0 2.625 1.188 2.625 2.625v21.375c0 1.438-1.188 2.625-2.625 2.625h-21.375c-1.438 0-2.625-1.188-2.625-2.625v-21.375c0-1.438 1.188-2.625 2.625-2.625h21.375z"></path>
</svg>
