<!-- Generated by IcoMoon.io -->
<svg version="1.1" xmlns="http://www.w3.org/2000/svg" width="32" height="32" viewBox="0 0 32 32">
<title>handtruck</title>
<path d="M14.965 20.228c-0.864 0-1.44-0.576-1.44-1.44v-8.642c0-0.864 0.576-1.44 1.44-1.44h8.642c0.864 0 1.44 0.576 1.44 1.44v8.642c0 0.864-0.576 1.44-1.44 1.44h-8.642z"></path>
<path d="M12.084 25.989c0 1.591-1.29 2.881-2.881 2.881s-2.881-1.29-2.881-2.881c0-1.591 1.29-2.881 2.881-2.881s2.881 1.29 2.881 2.881z"></path>
<path d="M11.94 3.377v18.436h11.666v2.881h-10.37c-0.576-1.728-2.16-2.881-4.177-2.881v-16.851h-3.025v-2.881h4.321c0.864-0.144 1.44 0.432 1.584 1.296z"></path>
</svg>
