<!-- Generated by IcoMoon.io -->
<svg version="1.1" xmlns="http://www.w3.org/2000/svg" width="32" height="32" viewBox="0 0 32 32">
<title>help_outline</title>
<path d="M16 8c2.938 0 5.313 2.375 5.313 5.313 0 3.313-4 3.688-4 6.688h-2.625c0-4.313 4-4 4-6.688 0-1.438-1.25-2.625-2.688-2.625s-2.688 1.188-2.688 2.625h-2.625c0-2.938 2.375-5.313 5.313-5.313zM16 26.688c5.875 0 10.688-4.813 10.688-10.688s-4.813-10.688-10.688-10.688-10.688 4.813-10.688 10.688 4.813 10.688 10.688 10.688zM16 2.688c7.375 0 13.313 5.938 13.313 13.313s-5.938 13.313-13.313 13.313-13.313-5.938-13.313-13.313 5.938-13.313 13.313-13.313zM14.688 24v-2.688h2.625v2.688h-2.625z"></path>
</svg>
