<!-- Generated by IcoMoon.io -->
<svg version="1.1" xmlns="http://www.w3.org/2000/svg" width="32" height="32" viewBox="0 0 32 32">
<title>laptop_mac</title>
<path d="M16 25.313c0.75 0 1.313-0.563 1.313-1.313s-0.563-1.313-1.313-1.313-1.313 0.563-1.313 1.313 0.563 1.313 1.313 1.313zM5.313 6.688v14.625h21.375v-14.625h-21.375zM26.688 24h5.313c0 1.438-1.25 2.688-2.688 2.688h-26.625c-1.438 0-2.688-1.25-2.688-2.688h5.313c-1.438 0-2.625-1.25-2.625-2.688v-14.625c0-1.438 1.188-2.688 2.625-2.688h21.375c1.438 0 2.625 1.25 2.625 2.688v14.625c0 1.438-1.188 2.688-2.625 2.688z"></path>
</svg>
