<!-- Generated by IcoMoon.io -->
<svg version="1.1" xmlns="http://www.w3.org/2000/svg" width="32" height="32" viewBox="0 0 32 32">
<title>leak_add</title>
<path d="M18.688 28c0-5.188 4.125-9.313 9.313-9.313v2.625c-3.688 0-6.688 3-6.688 6.688h-2.625zM24 28c0-2.188 1.813-4 4-4v4h-4zM13.313 28c0-8.063 6.625-14.688 14.688-14.688v2.688c-6.625 0-12 5.375-12 12h-2.688zM13.313 4c0 5.188-4.125 9.313-9.313 9.313v-2.625c3.688 0 6.688-3 6.688-6.688h2.625zM18.688 4c0 8.063-6.563 14.688-14.688 14.688v-2.688c6.625 0 12-5.375 12-12h2.688zM8 4c0 2.188-1.813 4-4 4v-4h4z"></path>
</svg>
