<!-- Generated by IcoMoon.io -->
<svg version="1.1" xmlns="http://www.w3.org/2000/svg" width="32" height="32" viewBox="0 0 32 32">
<title>liquor</title>
<path d="M24 2.667c-2.933 0-5.333 2.4-5.333 5.333h6.667v5.2c2.267-0.533 4-2.667 4-5.2 0-2.933-2.4-5.333-5.333-5.333z"></path>
<path d="M22.667 9.333h-18.667c-0.533 0-1.067 0.267-1.2 0.8-0.267 0.533-0.133 1.067 0.267 1.467l8.933 8.933v6.133h-4v2.667h10.667v-2.667h-4v-6.133l8.933-8.933c0.4-0.4 0.533-0.933 0.267-1.467s-0.667-0.8-1.2-0.8z"></path>
<path d="M7.333 8h3.733l-3.6-3.6c-0.267-0.267-0.533-0.4-0.933-0.4h-4v2.667h3.467l1.333 1.333z"></path>
</svg>
