<!-- Generated by IcoMoon.io -->
<svg version="1.1" xmlns="http://www.w3.org/2000/svg" width="32" height="32" viewBox="0 0 32 32">
<title>local_play</title>
<path d="M20.75 22.375l-1.438-5.438 4.375-3.625-5.625-0.313-2.063-5.25-2.063 5.25-5.688 0.313 4.438 3.625-1.438 5.438 4.75-3.063zM26.688 16c0 1.438 1.188 2.688 2.625 2.688v5.313c0 1.438-1.188 2.688-2.625 2.688h-21.375c-1.438 0-2.625-1.25-2.625-2.688v-5.313c1.5 0 2.625-1.25 2.625-2.688s-1.188-2.688-2.625-2.688v-5.313c0-1.438 1.188-2.688 2.625-2.688h21.375c1.438 0 2.625 1.25 2.625 2.688v5.313c-1.438 0-2.625 1.25-2.625 2.688z"></path>
</svg>
