<!-- Generated by IcoMoon.io -->
<svg version="1.1" xmlns="http://www.w3.org/2000/svg" width="32" height="32" viewBox="0 0 32 32">
<title>looks_3</title>
<path d="M20 14v-2c0-1.5-1.188-2.688-2.625-2.688h-5.375v2.688h5.375v2.688h-2.688v2.625h2.688v2.688h-5.375v2.688h5.375c1.438 0 2.625-1.188 2.625-2.688v-2c0-1.125-0.875-2-2-2 1.125 0 2-0.875 2-2zM25.375 4c1.438 0 2.625 1.25 2.625 2.688v18.625c0 1.438-1.188 2.688-2.625 2.688h-18.688c-1.438 0-2.688-1.25-2.688-2.688v-18.625c0-1.438 1.25-2.688 2.688-2.688h18.688z"></path>
</svg>
