<!-- Generated by IcoMoon.io -->
<svg version="1.1" xmlns="http://www.w3.org/2000/svg" width="32" height="32" viewBox="0 0 32 32">
<title>loupe</title>
<path d="M16 26.688c5.875 0 10.688-4.813 10.688-10.688s-4.813-10.688-10.688-10.688-10.688 4.813-10.688 10.688 4.813 10.688 10.688 10.688zM16 2.688c7.375 0 13.313 5.938 13.313 13.313v10.688c0 1.438-1.188 2.625-2.625 2.625h-10.688c-7.375 0-13.313-5.938-13.313-13.313s5.938-13.313 13.313-13.313zM17.313 9.313v5.375h5.375v2.625h-5.375v5.375h-2.625v-5.375h-5.375v-2.625h5.375v-5.375h2.625z"></path>
</svg>
