<!-- Generated by IcoMoon.io -->
<svg version="1.1" xmlns="http://www.w3.org/2000/svg" width="32" height="32" viewBox="0 0 32 32">
<title>music_video</title>
<path d="M10.688 20c0-2.188 1.813-4 4-4 0.438 0 0.875 0.125 1.313 0.25v-8.25h6.688v2.688h-4v9.375c0 2.188-1.813 3.938-4 3.938s-4-1.813-4-4zM28 25.313v-18.625h-24v18.625h24zM28 4c1.438 0 2.688 1.25 2.688 2.688v18.625c0 1.438-1.25 2.688-2.688 2.688h-24c-1.438 0-2.688-1.25-2.688-2.688v-18.625c0-1.438 1.25-2.688 2.688-2.688h24z"></path>
</svg>
