<!-- Generated by IcoMoon.io -->
<svg version="1.1" xmlns="http://www.w3.org/2000/svg" width="32" height="32" viewBox="0 0 32 32">
<title>pollution</title>
<path d="M25.6 4.8h-0.933c-0.933-1.6-2.667-2.533-4.533-2.533-1.333 0-2.4 0.4-3.333 1.2-0.933-1.333-2.533-2.133-4.267-2.133-2.267 0-4.267 1.467-5.067 3.6h-0.933c-2 0-3.6 1.6-3.6 3.6s1.6 3.6 3.6 3.6h13.467l0.533-4.933c0-0.267 0.267-0.533 0.533-0.533h4.667c0.267 0 0.533 0.267 0.533 0.533l0.533 4.667c1.467-0.533 2.4-1.733 2.4-3.333-0.133-2.133-1.733-3.733-3.6-3.733z"></path>
<path d="M24.933 7.867h-3.2l-1.067 9.467-7.333-3.2v3.2l-7.333-3.2v16.533h20v-13.333l-1.067-9.467zM11.333 28h-2.667v-2.667h2.667v2.667zM16.667 28h-2.667v-2.667h2.667v2.667zM16.667 22.667h-8v-2.667h8v2.667zM23.333 28h-4v-2.667h4v2.667zM23.333 22.667h-4v-2.667h4v2.667z"></path>
</svg>
