<!-- Generated by IcoMoon.io -->
<svg version="1.1" xmlns="http://www.w3.org/2000/svg" width="32" height="32" viewBox="0 0 32 32">
<title>sentiment_very_dissatisfied</title>
<path d="M16 18.688c3.125 0 5.75 1.875 6.813 4.625h-13.625c1.063-2.75 3.688-4.625 6.813-4.625zM10.438 16l-1.438-1.438 1.438-1.375-1.438-1.438 1.438-1.375 1.375 1.375 1.438-1.375 1.438 1.375-1.438 1.438 1.438 1.375-1.438 1.438-1.438-1.438zM21.563 10.375l1.438 1.375-1.438 1.438 1.438 1.375-1.438 1.438-1.375-1.438-1.438 1.438-1.438-1.438 1.438-1.375-1.438-1.438 1.438-1.375 1.438 1.375zM16 26.688c5.875 0 10.688-4.813 10.688-10.688s-4.813-10.688-10.688-10.688-10.688 4.813-10.688 10.688 4.813 10.688 10.688 10.688zM16 2.688c7.375 0 13.313 5.938 13.313 13.313s-5.938 13.313-13.313 13.313-13.313-5.938-13.313-13.313 5.938-13.313 13.313-13.313z"></path>
</svg>
