<!-- Generated by IcoMoon.io -->
<svg version="1.1" xmlns="http://www.w3.org/2000/svg" width="32" height="32" viewBox="0 0 32 32">
<title>settings_brightness</title>
<path d="M16 12v8c2.188 0 4-1.813 4-4s-1.813-4-4-4zM10.688 21.313v-3.313l-2-2 2-2v-3.313h3.313l2-2 2 2h3.313v3.313l2 2-2 2v3.313h-3.313l-2 2-2-2h-3.313zM28 25.375v-18.75h-24v18.75h24zM28 4c1.438 0 2.688 1.25 2.688 2.688v18.625c0 1.438-1.25 2.688-2.688 2.688h-24c-1.438 0-2.688-1.25-2.688-2.688v-18.625c0-1.438 1.25-2.688 2.688-2.688h24z"></path>
</svg>
