<!-- Generated by IcoMoon.io -->
<svg version="1.1" xmlns="http://www.w3.org/2000/svg" width="32" height="32" viewBox="0 0 32 32">
<title>settings_voice</title>
<path d="M25.313 13.313c0 4.563-3.625 8.375-8 9v4.375h-2.625v-4.375c-4.375-0.625-8-4.438-8-9h2.25c0 4 3.375 6.813 7.063 6.813s7.063-2.813 7.063-6.813h2.25zM20 32v-2.688h2.688v2.688h-2.688zM14.688 32v-2.688h2.625v2.688h-2.625zM16 17.313c-2.188 0-4-1.813-4-4v-8c0-2.188 1.813-4 4-4s4 1.813 4 4v8c0 2.188-1.813 4-4 4zM9.313 32v-2.688h2.688v2.688h-2.688z"></path>
</svg>
