<!-- Generated by IcoMoon.io -->
<svg version="1.1" xmlns="http://www.w3.org/2000/svg" width="32" height="32" viewBox="0 0 32 32">
<title>settings_overscan</title>
<path d="M28 25.375v-18.75h-24v18.75h24zM28 4c1.438 0 2.688 1.25 2.688 2.688v18.625c0 1.438-1.25 2.688-2.688 2.688h-24c-1.438 0-2.688-1.25-2.688-2.688v-18.625c0-1.438 1.25-2.688 2.688-2.688h24zM18.688 21.313l-2.688 3.375-2.688-3.375h5.375zM8 13.313v5.375l-3.313-2.688zM24 13.313l3.313 2.688-3.313 2.688v-5.375zM16 7.313l2.688 3.375h-5.375z"></path>
</svg>
