<!-- Generated by IcoMoon.io -->
<svg version="1.1" xmlns="http://www.w3.org/2000/svg" width="32" height="32" viewBox="0 0 32 32">
<title>swap_calls</title>
<path d="M24 5.313l5.313 5.375h-4v9.313c0 2.938-2.375 5.313-5.313 5.313s-5.313-2.375-5.313-5.313v-9.313c0-1.438-1.25-2.688-2.688-2.688s-2.688 1.25-2.688 2.688v9.313h4l-5.313 5.313-5.313-5.313h4v-9.313c0-2.938 2.375-5.375 5.313-5.375s5.313 2.438 5.313 5.375v9.313c0 1.438 1.25 2.688 2.688 2.688s2.688-1.25 2.688-2.688v-9.313h-4z"></path>
</svg>
