<!-- Generated by IcoMoon.io -->
<svg version="1.1" xmlns="http://www.w3.org/2000/svg" width="32" height="32" viewBox="0 0 32 32">
<title>timelapse</title>
<path d="M16 26.688c5.875 0 10.688-4.813 10.688-10.688s-4.813-10.688-10.688-10.688-10.688 4.813-10.688 10.688 4.813 10.688 10.688 10.688zM16 2.688c7.375 0 13.313 5.938 13.313 13.313s-5.938 13.313-13.313 13.313-13.313-5.938-13.313-13.313 5.938-13.313 13.313-13.313zM21.625 10.375c3.125 3.125 3.188 8.125 0.063 11.25s-8.188 3.125-11.313 0l5.625-5.625v-8c2.063 0 4.063 0.813 5.625 2.375z"></path>
</svg>
