<?xml version="1.0" encoding="utf-8"?>
<!-- Generator: Adobe Illustrator 23.0.2, SVG Export Plug-In . SVG Version: 6.00 Build 0)  -->
<svg version="1.1" id="Layer_1" xmlns="http://www.w3.org/2000/svg" xmlns:xlink="http://www.w3.org/1999/xlink" x="0px" y="0px"
	 viewBox="0 0 446.08 100.11" style="enable-background:new 0 0 446.08 100.11;" xml:space="preserve">
<g>
	<g>
		<g>
			<g>
				<path fill="#ffffff" d="M141.12,31.22c0.06,5.47,3.96,9.86,9.68,9.86c4.27,0,7.04-2.58,8.98-6.09l4.27,2.45
					c-2.83,5.28-7.6,8.29-13.63,8.29c-8.8,0-14.45-6.72-14.45-15.2c0-8.73,5.09-15.96,14.32-15.96c9.49,0,14.51,7.85,14.01,16.65
					H141.12z M159.02,26.95c-0.69-4.27-4.27-7.73-8.67-7.73c-4.34,0-8.36,3.46-8.98,7.73H159.02z"/>
				<path fill="#ffffff" d="M173.12,18.59h0.13c1.76-2.32,3.27-4.02,6.53-4.02c1.7,0,3.08,0.57,4.52,1.38l-2.39,4.59
					c-1.01-0.69-1.7-1.32-3.02-1.32c-5.53,0-5.78,7.1-5.78,10.93v14.76h-5.03V15.39h5.03V18.59z"/>
				<path fill="#ffffff" d="M192.91,5.58c0,2.01-1.63,3.58-3.58,3.58c-1.95,0-3.58-1.57-3.58-3.58c0-1.95,1.63-3.58,3.58-3.58
					C191.28,2,192.91,3.63,192.91,5.58z M191.85,44.91h-5.03V15.39h5.03V44.91z"/>
				<path fill="#ffffff" d="M209.27,22.23c-0.69-1.57-2.2-3.02-4.02-3.02c-1.76,0-3.64,1.38-3.64,3.27c0,2.7,3.39,3.71,6.85,5.15
					c3.46,1.44,6.85,3.52,6.85,8.48c0,5.59-4.52,9.61-9.99,9.61c-4.96,0-8.86-2.83-10.43-7.48l4.46-1.88
					c1.26,2.76,2.7,4.71,6.03,4.71c2.7,0,4.77-1.82,4.77-4.52c0-6.6-13.32-4.34-13.32-13.63c0-4.96,4.02-8.36,8.8-8.36
					c3.39,0,6.53,2.39,7.85,5.47L209.27,22.23z"/>
				<polygon fill="#ffffff" points="241.02,15.39 234.3,15.39 223.56,26.32 223.56,2 218.53,2 218.53,44.91 223.56,44.91 223.56,32.79
					224.88,31.47 236.75,44.91 243.41,44.91 228.4,27.95 				"/>
				<polygon fill="#ffffff" points="136.13,2 124.88,32.1 113.62,2 107.94,2 124.72,45.8 124.88,46.23 141.82,2 				"/>
			</g>
			<g>
				<g>
					<g>
						<polygon fill="#ffffff" points="122.84,58.94 122.84,71.34 137.04,71.34 137.04,76.02 122.84,76.02 122.84,97.18 117.81,97.18
							117.81,54.26 137.49,54.26 137.49,58.94 						"/>
					</g>
				</g>
				<path fill="#ffffff" d="M147.44,57.85c0,2.01-1.63,3.58-3.58,3.58c-1.95,0-3.58-1.57-3.58-3.58c0-1.95,1.63-3.58,3.58-3.58
					C145.8,54.27,147.44,55.9,147.44,57.85z M146.37,97.18h-5.03V67.66h5.03V97.18z"/>
				<path fill="#ffffff" d="M157.88,71.24h0.13c2.07-2.83,4.78-4.4,8.42-4.4c8.17,0,10.05,5.91,10.05,12.82v17.53h-5.03V80.53
					c0-4.77-0.38-9.05-6.22-9.05c-6.91,0-7.35,6.41-7.35,11.69v14.01h-5.02V67.66h5.02V71.24z"/>
				<path fill="#ffffff" d="M209.94,97.18h-5.03V93.1h-0.13c-2.58,3.27-6.03,4.9-10.18,4.9c-8.67,0-14.14-7.35-14.14-15.52
					c0-8.42,5.34-15.64,14.2-15.64c4.02,0,7.66,1.88,10.11,5.03h0.13v-4.21h5.03V97.18z M185.63,82.11c0,5.78,3.39,11.25,9.67,11.25
					c6.47,0,9.86-5.22,9.86-11.18c0-5.91-3.71-10.68-9.93-10.68C189.4,71.49,185.63,76.58,185.63,82.11z"/>
				<path fill="#ffffff" d="M220.98,71.24h0.13c2.07-2.83,4.78-4.4,8.42-4.4c8.17,0,10.05,5.91,10.05,12.82v17.53h-5.03V80.53
					c0-4.77-0.38-9.05-6.22-9.05c-6.91,0-7.35,6.41-7.35,11.69v14.01h-5.03V67.66h5.03V71.24z"/>
				<path fill="#ffffff" d="M268.13,76.45h-0.13c-2.33-2.95-5.22-4.96-9.17-4.96c-6.1,0-10.43,5.03-10.43,10.93
					c0,5.84,4.02,10.93,10.18,10.93c4.21,0,7.16-1.88,9.61-5.09h0.13v6.72c-2.89,1.95-5.84,3.02-9.36,3.02
					c-8.92,0-15.71-6.66-15.71-15.58c0-8.8,7.1-15.58,15.77-15.58c3.2,0,6.47,1.07,9.11,2.95V76.45z"/>
				<path fill="#ffffff" d="M279.64,57.85c0,2.01-1.63,3.58-3.58,3.58c-1.95,0-3.58-1.57-3.58-3.58c0-1.95,1.63-3.58,3.58-3.58
					C278.01,54.27,279.64,55.9,279.64,57.85z M278.57,97.18h-5.03V67.66h5.03V97.18z"/>
				<path fill="#ffffff" d="M312.3,97.18h-5.03V93.1h-0.13c-2.58,3.27-6.03,4.9-10.18,4.9c-8.67,0-14.14-7.35-14.14-15.52
					c0-8.42,5.34-15.64,14.2-15.64c4.02,0,7.66,1.88,10.11,5.03h0.13v-4.21h5.03V97.18z M287.99,82.11c0,5.78,3.39,11.25,9.67,11.25
					c6.47,0,9.86-5.22,9.86-11.18c0-5.91-3.71-10.68-9.93-10.68C291.76,71.49,287.99,76.58,287.99,82.11z"/>
				<path fill="#ffffff" d="M323.28,97.18h-5.02V54.27h5.02V97.18z"/>
			</g>
		</g>
		<g>
			<g>
				<g>
					<path fill="#ffffff" d="M54.33,33.32c-18.2-0.25-36.51,1.14-53.13,4.16C0.66,39.52,0.27,41.62,0,43.75
						c15.14-0.94,31.7-1.42,48.33-1.45C50.54,38.94,52.54,35.94,54.33,33.32z"/>
					<path fill="#ffffff" d="M15.46,67.9c-4.5-0.54-8.9-1.19-13.22-1.94c0.84,2.48,1.87,4.87,3.08,7.16c5.28,1.43,10.71,2.6,16.24,3.51
						C19.13,73.43,17.77,71.48,15.46,67.9z"/>
					<path fill="#ffffff" d="M21.31,91.08C29.48,96.7,39.4,100,50.09,100s20.61-3.3,28.78-8.92c-9.41,2.12-19.1,3.19-28.78,3.19
						S30.73,93.2,21.31,91.08z"/>
					<path fill="#ffffff" d="M9.25,56.76C6.12,56.61,3.04,56.44,0,56.25c0.27,2.14,0.66,4.23,1.19,6.28c3.95,0.71,7.98,1.34,12.09,1.87
						C11.61,61.57,10.36,59.01,9.25,56.76z"/>
					<path fill="#ffffff" d="M24.32,80.3c-5.68-0.82-11.26-1.92-16.71-3.28c2.27,3.49,4.96,6.68,8,9.5c5.38,1.52,10.87,2.68,16.42,3.47
						C28.89,86.34,26.48,83.18,24.32,80.3z"/>
					<path fill="#ffffff" d="M46.23,45.51c-9.57,0.04-19.1,0.22-28.32,0.56c0.94,1.88,2.55,5.05,4.18,7.99
						c6.02,0.19,12.13,0.32,18.29,0.39C42.11,51.82,44.06,48.83,46.23,45.51z"/>
					<path fill="#ffffff" d="M23.97,57.33c0.05,0.08,0.1,0.18,0.16,0.26c1.46,2.38,3.18,5.02,4.57,7.1c0.32,0.47,0.61,0.91,0.88,1.32
						c0.98,1.46,1.64,2.42,1.64,2.42s0.5-0.76,1.46-2.21c0.29-0.45,0.63-0.95,1.01-1.53c1.15-1.75,2.72-4.14,4.63-7.06
						C33.49,57.56,28.7,57.47,23.97,57.33z"/>
					<path fill="#ffffff" d="M92.58,22.98c-2.23-3.44-4.88-6.58-7.87-9.37c-22.41-6.37-46.82-6.37-69.23,0
						c-2.99,2.79-5.63,5.93-7.87,9.37C34.74,16.19,65.45,16.19,92.58,22.98z"/>
					<path fill="#ffffff" d="M58.65,54.47c14.44-0.14,28.7-0.62,41.84-1.44c0.06-1,0.1-2.01,0.1-3.03c0-1.02-0.04-2.03-0.1-3.03
						c-11.45-0.71-23.74-1.17-36.26-1.36C62.41,48.51,60.73,51.22,58.65,54.47z"/>
					<path fill="#ffffff" d="M50.53,66.73c16.65-0.02,33.26-1.43,48.46-4.19c0.53-2.05,0.92-4.15,1.19-6.28
						c-13.7,0.85-28.58,1.32-43.61,1.43C54.92,60.22,52.95,63.17,50.53,66.73z"/>
					<path fill="#ffffff" d="M66.23,42.43c11.72,0.21,23.2,0.65,33.95,1.32c-0.27-2.14-0.66-4.24-1.19-6.28
						c-8.73-1.58-17.92-2.71-27.32-3.4C69.49,37.35,67.75,40.05,66.23,42.43z"/>
					<path fill="#ffffff" d="M78.67,8.78C70.54,3.24,60.7,0,50.09,0S29.65,3.24,21.52,8.78C40.22,4.6,59.97,4.6,78.67,8.78z"/>
					<path fill="#ffffff" d="M56.49,30.16c2.84-4.12,4.93-7.03,6.1-8.64c-19.36-1.34-39.21,0.42-57.26,5.33
						c-1.21,2.29-2.25,4.69-3.1,7.18C19.27,31.07,37.98,29.77,56.49,30.16z"/>
					<path fill="#ffffff" d="M48.36,69.9c-1.9,2.73-4.15,5.85-6.37,8.87c17.96,0.81,36.18-1.08,52.87-5.63
						c1.21-2.29,2.24-4.68,3.09-7.16c-15.07,2.62-31.45,3.94-47.85,3.94C49.51,69.93,48.94,69.91,48.36,69.9z"/>
					<path fill="#ffffff" d="M39.73,81.82c-2.64,3.54-5.01,6.66-6.37,8.36c17.08,2.24,34.67,1.02,51.18-3.64
						c3.06-2.83,5.75-6.02,8.03-9.52c-13.56,3.39-28.01,5.12-42.48,5.12C46.63,82.14,43.18,82.01,39.73,81.82z"/>
				</g>
			</g>
		</g>
	</g>
	<g>
		<g>
			<path fill="#ffffff" d="M418.91,97.28h-2.52l-0.46-6.69h-0.1c-2.47,5.25-7.41,7.47-12.72,7.47c-11.58,0-17.35-9.11-17.35-19.15
				s5.77-19.15,17.35-19.15c7.72,0,14,4.17,15.34,12.2h-3.5c-0.46-4.22-4.84-9.22-11.84-9.22c-9.73,0-13.85,8.13-13.85,16.17
				s4.12,16.17,13.85,16.17c8.13,0,12.87-5.71,12.72-13.49h-12.51v-2.99h15.6V97.28z"/>
			<path fill="#ffffff" d="M446.08,97.28h-23.73c0.26-10.71,11.22-13.33,17.35-19.46c1.96-2.01,2.99-3.91,2.99-6.8
				c0-4.68-3.71-7.36-8.08-7.36c-5.92,0-8.24,4.74-8.13,10.04h-3.24c-0.15-7.41,3.71-12.77,11.53-12.77
				c6.28,0,11.17,3.45,11.17,10.14c0,6.02-4.38,9.78-9.06,12.82c-3.5,2.37-9.94,5.56-10.81,10.4h20.03V97.28z"/>
		</g>
	</g>
	<g>
		<g>
			<rect x="353.2" fill="#ffffff" width="1.2" height="100"/>
		</g>
	</g>
</g>
</svg>
