<!-- Generated by IcoMoon.io -->
<svg version="1.1" xmlns="http://www.w3.org/2000/svg" width="32" height="32" viewBox="0 0 32 32">
<title>videogame_asset</title>
<path d="M26 16c1.125 0 2-0.875 2-2s-0.875-2-2-2-2 0.875-2 2 0.875 2 2 2zM20.688 20c1.125 0 2-0.875 2-2s-0.875-2-2-2-2 0.875-2 2 0.875 2 2 2zM14.688 17.313v-2.625h-4v-4h-2.688v4h-4v2.625h4v4h2.688v-4h4zM28 8c1.438 0 2.688 1.25 2.688 2.688v10.625c0 1.438-1.25 2.688-2.688 2.688h-24c-1.438 0-2.688-1.25-2.688-2.688v-10.625c0-1.438 1.25-2.688 2.688-2.688h24z"></path>
</svg>
