<!-- Generated by IcoMoon.io -->
<svg version="1.1" xmlns="http://www.w3.org/2000/svg" width="32" height="32" viewBox="0 0 32 32">
<title>view_week</title>
<path d="M17.313 6.688c0.75 0 1.375 0.563 1.375 1.313v16c0 0.75-0.625 1.313-1.375 1.313h-4c-0.75 0-1.313-0.563-1.313-1.313v-16c0-0.75 0.563-1.313 1.313-1.313h4zM26.688 6.688c0.75 0 1.313 0.563 1.313 1.313v16c0 0.75-0.563 1.313-1.313 1.313h-4c-0.75 0-1.375-0.563-1.375-1.313v-16c0-0.75 0.625-1.313 1.375-1.313h4zM8 6.688c0.75 0 1.313 0.563 1.313 1.313v16c0 0.75-0.563 1.313-1.313 1.313h-4c-0.75 0-1.313-0.563-1.313-1.313v-16c0-0.75 0.563-1.313 1.313-1.313h4z"></path>
</svg>
