<!-- Generated by IcoMoon.io -->
<svg version="1.1" xmlns="http://www.w3.org/2000/svg" width="32" height="32" viewBox="0 0 32 32">
<title>weekend</title>
<path d="M24 6.688c1.438 0 2.688 1.188 2.688 2.625v2.875c-1.563 0.563-2.688 2-2.688 3.75v2.75h-16v-2.75c0-1.75-1.125-3.188-2.688-3.75v-2.875c0-1.438 1.25-2.625 2.688-2.625h16zM28 13.313c1.438 0 2.688 1.25 2.688 2.688v6.688c0 1.438-1.25 2.625-2.688 2.625h-24c-1.438 0-2.688-1.188-2.688-2.625v-6.688c0-1.438 1.25-2.688 2.688-2.688s2.688 1.25 2.688 2.688v4h18.625v-4c0-1.438 1.25-2.688 2.688-2.688z"></path>
</svg>
