<!-- Generated by IcoMoon.io -->
<svg version="1.1" xmlns="http://www.w3.org/2000/svg" width="32" height="32" viewBox="0 0 32 32">
<title>wet_floor</title>
<path d="M15.333 11.467l2.933 4 5.733-2.133 6.8 4-0.933 2.267-6-2.8-4.133 2.533 8.267 9.2-2 1.867-9.467-9.333-5.2-7.2-1.2 2.933 4.133 3.467-1.733 2-5.867-4.8 3.2-7.6 0.4-0.667c0.533-0.667 1.467-0.933 2.267-0.8l11.067-0.667 0.133 2.4-8.4 1.333z"></path>
<path d="M11.733 6.933c-0.933 1.067-2.533 1.2-3.733 0.4-1.067-0.933-1.2-2.533-0.4-3.733 0.933-1.067 2.533-1.2 3.733-0.4 1.067 0.933 1.333 2.533 0.4 3.733z"></path>
<path d="M1.333 28h18.667v2.667h-18.667v-2.667z"></path>
</svg>
