<!-- Generated by IcoMoon.io -->
<svg version="1.1" xmlns="http://www.w3.org/2000/svg" width="32" height="32" viewBox="0 0 32 32">
<title>accessible</title>
<path d="M17.125 24h2.75c-0.625 3.063-3.313 5.313-6.563 5.313-3.688 0-6.625-2.938-6.625-6.625 0-3.25 2.25-5.938 5.313-6.563v2.75c-1.563 0.563-2.688 2.063-2.688 3.813 0 2.188 1.813 4 4 4 1.75 0 3.25-1.125 3.813-2.688zM13.313 12.125c0-1.874 2.085-3.532 4-2.438h0.063v0.063c0.313 0.125 0.563 0.313 0.813 0.563l1.75 1.938c1.313 1.438 3.313 2.438 5.375 2.438v2.625c-2.313 0-4.875-1.125-6.625-2.563v4.563h4c1.438 0 2.625 1.25 2.625 2.688v7.313h-2.625v-6.625h-6.688c-1.438 0-2.688-1.25-2.688-2.688v-7.875zM13.313 5.313c0-1.5 1.188-2.625 2.688-2.625s2.688 1.125 2.688 2.625-1.188 2.688-2.688 2.688-2.688-1.188-2.688-2.688z"></path>
</svg>
