<!-- Generated by IcoMoon.io -->
<svg version="1.1" xmlns="http://www.w3.org/2000/svg" width="32" height="32" viewBox="0 0 32 32">
<title>account_circle</title>
<path d="M16 25.625c3.313 0 6.25-1.75 8-4.313-0.063-2.625-5.375-4.125-8-4.125-2.688 0-7.938 1.5-8 4.125 1.75 2.563 4.688 4.313 8 4.313zM16 6.688c-2.188 0-4 1.813-4 4s1.813 4 4 4 4-1.813 4-4-1.813-4-4-4zM16 2.688c7.375 0 13.313 5.938 13.313 13.313s-5.938 13.313-13.313 13.313-13.313-5.938-13.313-13.313 5.938-13.313 13.313-13.313z"></path>
</svg>
