<!-- Generated by IcoMoon.io -->
<svg version="1.1" xmlns="http://www.w3.org/2000/svg" width="32" height="32" viewBox="0 0 32 32">
<title>adb</title>
<path d="M20 12c0.75 0 1.313-0.563 1.313-1.313s-0.563-1.375-1.313-1.375-1.313 0.625-1.313 1.375 0.563 1.313 1.313 1.313zM12 12c0.75 0 1.313-0.563 1.313-1.313s-0.563-1.375-1.313-1.375-1.313 0.625-1.313 1.375 0.563 1.313 1.313 1.313zM21.5 5.813c2.313 1.688 3.813 4.438 3.813 7.5v1.375h-18.625v-1.375c0-3.063 1.5-5.813 3.813-7.5l-2.813-2.813 1.125-1.063 3.063 3.063c1.25-0.625 2.625-1 4.125-1s2.875 0.375 4.125 1l3.063-3.063 1.125 1.063zM6.688 21.313v-5.313h18.625v5.313c0 5.188-4.125 9.375-9.313 9.375s-9.313-4.188-9.313-9.375z"></path>
</svg>
