<!-- Generated by IcoMoon.io -->
<svg version="1.1" xmlns="http://www.w3.org/2000/svg" width="32" height="32" viewBox="0 0 32 32">
<title>add_a_photo</title>
<path d="M13.063 18.688c0-2.375 1.875-4.313 4.25-4.313s4.313 1.938 4.313 4.313-1.938 4.25-4.313 4.25-4.25-1.875-4.25-4.25zM17.313 25.313c3.688 0 6.688-2.938 6.688-6.625s-3-6.688-6.688-6.688-6.625 3-6.625 6.688 2.938 6.625 6.625 6.625zM8 13.313v-4h4v-4h9.313l2.438 2.688h4.25c1.438 0 2.688 1.25 2.688 2.688v16c0 1.438-1.25 2.625-2.688 2.625h-21.313c-1.438 0-2.688-1.188-2.688-2.625v-13.375h4zM4 5.313v-4h2.688v4h4v2.688h-4v4h-2.688v-4h-4v-2.688h4z"></path>
</svg>
