<!-- Generated by IcoMoon.io -->
<svg version="1.1" xmlns="http://www.w3.org/2000/svg" width="32" height="32" viewBox="0 0 32 32">
<title>add_alert</title>
<path d="M21.313 17.375v-2.688h-4v-4h-2.625v4h-4v2.688h4v4h2.625v-4h4zM25.188 22.438l2.813 2.813v1.438h-24v-1.438l2.813-2.813v-7.75c0-4.313 3-8 7.063-8.938v-0.938c0-1.188 0.938-2.125 2.125-2.125s2.125 0.938 2.125 2.125v0.938c4.063 0.938 7.063 4.625 7.063 8.938v7.75zM13.375 28h5.25c0 1.438-1.188 2.688-2.625 2.688s-2.625-1.25-2.625-2.688z"></path>
</svg>
