<!-- Generated by IcoMoon.io -->
<svg version="1.1" xmlns="http://www.w3.org/2000/svg" width="32" height="32" viewBox="0 0 32 32">
<title>add_shopping_cart</title>
<path d="M9.563 19.688c0 0.188 0.125 0.313 0.313 0.313h15.438v2.688h-16c-1.438 0-2.625-1.25-2.625-2.688 0-0.438 0.125-0.875 0.313-1.25l1.813-3.313-4.813-10.125h-2.688v-2.625h4.375c0.844 1.76 1.677 3.531 2.5 5.313 1.064 2.227 2.113 4.471 3.188 6.688h9.375c1.712-3.121 3.454-6.213 5.125-9.375l2.313 1.313-5.125 9.313c-0.438 0.813-1.313 1.375-2.313 1.375h-9.938l-1.188 2.188zM22.688 24c1.438 0 2.625 1.25 2.625 2.688s-1.188 2.625-2.625 2.625-2.688-1.188-2.688-2.625 1.25-2.688 2.688-2.688zM9.313 24c1.438 0 2.688 1.25 2.688 2.688s-1.25 2.625-2.688 2.625-2.625-1.188-2.625-2.625 1.188-2.688 2.625-2.688zM14.688 12v-4h-4v-2.688h4v-4h2.625v4h4v2.688h-4v4h-2.625z"></path>
</svg>
