<!-- Generated by IcoMoon.io -->
<svg version="1.1" xmlns="http://www.w3.org/2000/svg" width="32" height="32" viewBox="0 0 32 32">
<title>airline_seat_recline_normal</title>
<path d="M26.688 26.75l-1.938 1.938-4.688-4.688h-6.75c-2.188 0-4-1.813-4-4v-7.688c0-1.625 1.375-3 3-3h0.063c0.927 0 1.712 0.525 2.188 1l1.875 2.063c1.438 1.563 4.063 2.688 6.25 2.688v2.938c-2.563 0-5.5-1.375-7.375-2.938v4.938h4.625zM8 21.313c0 2.188 1.813 4 4 4h8v2.688h-8c-3.688 0-6.688-3-6.688-6.688v-12h2.688v12zM10.125 7.188c-1.063-1.063-1.063-2.688 0-3.75s2.688-1.063 3.75 0 1.063 2.688 0 3.75-2.688 1.063-3.75 0z"></path>
</svg>
