<!-- Generated by IcoMoon.io -->
<svg version="1.1" xmlns="http://www.w3.org/2000/svg" width="32" height="32" viewBox="0 0 32 32">
<title>alarm_on</title>
<path d="M14.063 19.375l6.563-6.625 1.438 1.438-8 8-4.25-4.25 1.375-1.375zM16 26.688c5.188 0 9.313-4.188 9.313-9.375s-4.125-9.313-9.313-9.313-9.313 4.125-9.313 9.313 4.125 9.375 9.313 9.375zM16 5.313c6.625 0 12 5.375 12 12s-5.375 12-12 12-12-5.375-12-12 5.375-12 12-12zM10.5 4.5l-6.125 5.125-1.688-2 6.125-5.125zM29.313 7.625l-1.688 2.063-6.125-5.188 1.688-2z"></path>
</svg>
