<!-- Generated by IcoMoon.io -->
<svg version="1.1" xmlns="http://www.w3.org/2000/svg" width="32" height="32" viewBox="0 0 32 32">
<title>android</title>
<path d="M20 6.688v-1.375h-1.313v1.375h1.313zM13.313 6.688v-1.375h-1.313v1.375h1.313zM20.688 2.875c2 1.438 3.313 3.813 3.313 6.438h-16c0-2.625 1.25-5 3.25-6.438l-1.75-1.75c-0.25-0.25-0.25-0.688 0-0.938s0.688-0.25 0.938 0l2 2c1.063-0.563 2.313-0.875 3.563-0.875s2.438 0.313 3.5 0.875l2-2c0.25-0.25 0.688-0.25 0.938 0s0.25 0.688 0 0.938zM27.313 10.688c1.125 0 2 0.875 2 2v9.313c0 1.125-0.875 2-2 2s-2-0.875-2-2v-9.313c0-1.125 0.875-2 2-2zM4.688 10.688c1.125 0 2 0.875 2 2v9.313c0 1.125-0.875 2-2 2s-2-0.875-2-2v-9.313c0-1.125 0.875-2 2-2zM8 24v-13.313h16v13.313c0 0.75-0.563 1.313-1.313 1.313h-1.375v4.688c0 1.125-0.875 2-2 2s-2-0.875-2-2v-4.688h-2.625v4.688c0 1.125-0.875 2-2 2s-2-0.875-2-2v-4.688h-1.375c-0.75 0-1.313-0.563-1.313-1.313z"></path>
</svg>
