<!-- Generated by IcoMoon.io -->
<svg version="1.1" xmlns="http://www.w3.org/2000/svg" width="32" height="32" viewBox="0 0 32 32">
<title>archive</title>
<path d="M6.813 6.688h18.375l-1.25-1.375h-16zM16 23.313l7.313-7.313h-4.625v-2.688h-5.375v2.688h-4.625zM27.375 7c0.375 0.438 0.625 1.063 0.625 1.688v16.625c0 1.438-1.25 2.688-2.688 2.688h-18.625c-1.438 0-2.688-1.25-2.688-2.688v-16.625c0-0.625 0.25-1.25 0.625-1.688l1.813-2.25c0.375-0.438 0.938-0.75 1.563-0.75h16c0.625 0 1.188 0.313 1.563 0.75z"></path>
</svg>
