<!-- Generated by IcoMoon.io -->
<svg version="1.1" xmlns="http://www.w3.org/2000/svg" width="32" height="32" viewBox="0 0 32 32">
<title>attachment</title>
<path d="M2.688 16.688c0-4.063 3.25-7.375 7.313-7.375h14c2.938 0 5.313 2.438 5.313 5.375s-2.375 5.313-5.313 5.313h-11.313c-1.813 0-3.375-1.5-3.375-3.313s1.563-3.375 3.375-3.375h10v2.688h-10.125c-0.75 0-0.75 1.313 0 1.313h11.438c1.438 0 2.688-1.188 2.688-2.625s-1.25-2.688-2.688-2.688h-14c-2.563 0-4.688 2.125-4.688 4.688s2.125 4.625 4.688 4.625h12.688v2.688h-12.688c-4.063 0-7.313-3.25-7.313-7.313z"></path>
</svg>
