<!-- Generated by IcoMoon.io -->
<svg version="1.1" xmlns="http://www.w3.org/2000/svg" width="32" height="32" viewBox="0 0 32 32">
<title>av_timer</title>
<path d="M8 16c0-0.75 0.563-1.313 1.313-1.313s1.375 0.563 1.375 1.313-0.625 1.313-1.375 1.313-1.313-0.563-1.313-1.313zM24 16c0 0.75-0.563 1.313-1.313 1.313s-1.375-0.563-1.375-1.313 0.625-1.313 1.375-1.313 1.313 0.563 1.313 1.313zM14.688 4h1.313c6.625 0 12 5.375 12 12s-5.375 12-12 12-12-5.375-12-12c0-3.938 1.875-7.375 4.813-9.563v-0.063l9.063 9.063-1.875 1.875-7.25-7.188c-1.313 1.625-2.063 3.625-2.063 5.875 0 5.188 4.125 9.313 9.313 9.313s9.313-4.125 9.313-9.313c0-4.688-3.5-8.625-8-9.25v2.563h-2.625v-5.313zM14.688 22.688c0-0.75 0.563-1.375 1.313-1.375s1.313 0.625 1.313 1.375-0.563 1.313-1.313 1.313-1.313-0.563-1.313-1.313z"></path>
</svg>
