<!-- Generated by IcoMoon.io -->
<svg version="1.1" xmlns="http://www.w3.org/2000/svg" width="32" height="32" viewBox="0 0 32 32">
<title>blur_linear</title>
<path d="M17.313 22.688c-0.75 0-1.313-0.625-1.313-1.375s0.563-1.313 1.313-1.313 1.375 0.563 1.375 1.313-0.625 1.375-1.375 1.375zM17.313 17.313c-0.75 0-1.313-0.563-1.313-1.313s0.563-1.313 1.313-1.313 1.375 0.563 1.375 1.313-0.625 1.313-1.375 1.313zM17.313 12c-0.75 0-1.313-0.563-1.313-1.313s0.563-1.375 1.313-1.375 1.375 0.625 1.375 1.375-0.625 1.313-1.375 1.313zM22.688 16.688c-0.375 0-0.688-0.313-0.688-0.688s0.313-0.688 0.688-0.688 0.625 0.313 0.625 0.688-0.25 0.688-0.625 0.688zM22.688 11.313c-0.375 0-0.688-0.25-0.688-0.625s0.313-0.688 0.688-0.688 0.625 0.313 0.625 0.688-0.25 0.625-0.625 0.625zM4 4h24v2.688h-24v-2.688zM22.688 22c-0.375 0-0.688-0.313-0.688-0.688s0.313-0.625 0.688-0.625 0.625 0.25 0.625 0.625-0.25 0.688-0.625 0.688zM12 22.688c-0.75 0-1.313-0.625-1.313-1.375s0.563-1.313 1.313-1.313 1.313 0.563 1.313 1.313-0.563 1.375-1.313 1.375zM6.688 18c-1.125 0-2-0.875-2-2s0.875-2 2-2 2 0.875 2 2-0.875 2-2 2zM6.688 12.688c-1.125 0-2-0.875-2-2s0.875-2 2-2 2 0.875 2 2-0.875 2-2 2zM4 28v-2.688h24v2.688h-24zM12 12c-0.75 0-1.313-0.563-1.313-1.313s0.563-1.375 1.313-1.375 1.313 0.625 1.313 1.375-0.563 1.313-1.313 1.313zM12 17.313c-0.75 0-1.313-0.563-1.313-1.313s0.563-1.313 1.313-1.313 1.313 0.563 1.313 1.313-0.563 1.313-1.313 1.313zM6.688 23.313c-1.125 0-2-0.875-2-2s0.875-2 2-2 2 0.875 2 2-0.875 2-2 2z"></path>
</svg>
