<!-- Generated by IcoMoon.io -->
<svg version="1.1" xmlns="http://www.w3.org/2000/svg" width="32" height="32" viewBox="0 0 32 32">
<title>brightness_high</title>
<path d="M16 10.688c2.938 0 5.313 2.375 5.313 5.313s-2.375 5.313-5.313 5.313-5.313-2.375-5.313-5.313 2.375-5.313 5.313-5.313zM16 24c4.438 0 8-3.563 8-8s-3.563-8-8-8-8 3.563-8 8 3.563 8 8 8zM26.688 11.563l4.375 4.438-4.375 4.438v6.25h-6.25l-4.438 4.375-4.438-4.375h-6.25v-6.25l-4.375-4.438 4.375-4.438v-6.25h6.25l4.438-4.375 4.438 4.375h6.25v6.25z"></path>
</svg>
