<!-- Generated by IcoMoon.io -->
<svg version="1.1" xmlns="http://www.w3.org/2000/svg" width="32" height="32" viewBox="0 0 32 32">
<title>business_center</title>
<path d="M18.688 9.313v-2.625h-5.375v2.625h5.375zM26.688 9.313c1.438 0 2.625 1.25 2.625 2.688v4c0 1.438-1.188 2.688-2.625 2.688h-8v-2.688h-5.375v2.688h-8c-1.5 0-2.625-1.188-2.625-2.688v-4c0-1.438 1.188-2.688 2.625-2.688h5.313v-2.625l2.688-2.688h5.313l2.688 2.688v2.625h5.375zM13.313 21.313h5.375v-1.313h9.313v5.313c0 1.5-1.188 2.688-2.688 2.688h-18.625c-1.5 0-2.688-1.188-2.688-2.688v-5.313h9.313v1.313z"></path>
</svg>
