<!-- Generated by IcoMoon.io -->
<svg version="1.1" xmlns="http://www.w3.org/2000/svg" width="32" height="32" viewBox="0 0 32 32">
<title>camera_roll</title>
<path d="M26.688 12v-2.688h-2.688v2.688h2.688zM26.688 24v-2.688h-2.688v2.688h2.688zM21.313 12v-2.688h-2.625v2.688h2.625zM21.313 24v-2.688h-2.625v2.688h2.625zM16 12v-2.688h-2.688v2.688h2.688zM16 24v-2.688h-2.688v2.688h2.688zM18.688 6.688h10.625v20h-10.625c0 1.438-1.25 2.625-2.688 2.625h-10.688c-1.438 0-2.625-1.188-2.625-2.625v-20c0-1.438 1.188-2.688 2.625-2.688h1.375v-1.313c0-0.75 0.563-1.375 1.313-1.375h5.313c0.75 0 1.375 0.625 1.375 1.375v1.313h1.313c1.438 0 2.688 1.25 2.688 2.688z"></path>
</svg>
