<!-- Generated by IcoMoon.io -->
<svg version="1.1" xmlns="http://www.w3.org/2000/svg" width="32" height="32" viewBox="0 0 32 32">
<title>chart_arc</title>
<path d="M21.573 26.133l-2.68-4.64c1.307-0.96 2.213-2.453 2.4-4.16h5.373c-0.227 3.68-2.2 6.88-5.093 8.8zM17.333 9.373v-5.373c5.733 0.347 10.32 4.933 10.667 10.667h-5.373c-0.307-2.787-2.507-4.987-5.293-5.293zM9.333 16.667c0 0.853 0.173 1.667 0.507 2.4l-4.64 2.68c-0.773-1.533-1.2-3.253-1.2-5.080 0-6.040 4.72-10.973 10.667-11.333v5.373c-3 0.333-5.333 2.867-5.333 5.96zM15.333 28c-3.96 0-7.44-2-9.467-5.093l4.64-2.68c1.093 1.48 2.827 2.44 4.827 2.44 0.853 0 1.667-0.173 2.4-0.507l2.68 4.64c-1.533 0.773-3.253 1.2-5.080 1.2z"></path>
</svg>
