<!-- Generated by IcoMoon.io -->
<svg version="1.1" xmlns="http://www.w3.org/2000/svg" width="32" height="32" viewBox="0 0 32 32">
<title>closed_caption</title>
<path d="M24 14.688v-1.375c0-0.75-0.563-1.313-1.313-1.313h-4c-0.75 0-1.375 0.563-1.375 1.313v5.375c0 0.75 0.625 1.313 1.375 1.313h4c0.75 0 1.313-0.563 1.313-1.313v-1.375h-2v0.688h-2.688v-4h2.688v0.688h2zM14.688 14.688v-1.375c0-0.75-0.625-1.313-1.375-1.313h-4c-0.75 0-1.313 0.563-1.313 1.313v5.375c0 0.75 0.563 1.313 1.313 1.313h4c0.75 0 1.375-0.563 1.375-1.313v-1.375h-2v0.688h-2.688v-4h2.688v0.688h2zM25.313 5.313c1.438 0 2.688 1.25 2.688 2.688v16c0 1.438-1.25 2.688-2.688 2.688h-18.625c-1.5 0-2.688-1.25-2.688-2.688v-16c0-1.438 1.188-2.688 2.688-2.688h18.625z"></path>
</svg>
