<!-- Generated by IcoMoon.io -->
<svg version="1.1" xmlns="http://www.w3.org/2000/svg" width="32" height="32" viewBox="0 0 32 32">
<title>confirmation_number</title>
<path d="M17.313 11.313v-2.625h-2.625v2.625h2.625zM17.313 17.313v-2.625h-2.625v2.625h2.625zM17.313 23.313v-2.625h-2.625v2.625h2.625zM29.313 13.313c-1.438 0-2.625 1.25-2.625 2.688s1.188 2.688 2.625 2.688v5.313c0 1.438-1.188 2.688-2.625 2.688h-21.375c-1.438 0-2.625-1.25-2.625-2.688v-5.313c1.5 0 2.625-1.25 2.625-2.688s-1.188-2.688-2.625-2.688v-5.313c0-1.5 1.188-2.688 2.625-2.688h21.375c1.438 0 2.625 1.188 2.625 2.688v5.313z"></path>
</svg>
