<!-- Generated by IcoMoon.io -->
<svg version="1.1" xmlns="http://www.w3.org/2000/svg" width="32" height="32" viewBox="0 0 32 32">
<title>construction_worker</title>
<path d="M22.4 18.667c0 3.6-2.933 6.4-6.4 6.4-3.6 0-6.4-2.933-6.4-6.4v-1.867h-4.267v1.867c0 5.867 4.8 10.667 10.667 10.667s10.667-4.8 10.667-10.667v-1.867h-4.267v1.867z"></path>
<path d="M27.467 16.667h0.133c0.8 0 1.467-0.667 1.467-1.467s-0.667-1.467-1.467-1.467h-0.267c-0.133-3.867-2-7.2-4.933-9.2v0.933c0 0.667-0.533 1.2-1.2 1.2s-1.2-0.533-1.2-1.2v-2.133c-0.933-0.4-1.867-0.533-2.933-0.667v2.8c0 0.667-0.533 1.2-1.2 1.2s-1.2-0.533-1.2-1.2v-2.8c-1.067 0.133-2 0.4-2.933 0.667v2.133c0 0.667-0.533 1.2-1.2 1.2s-1.2-0.533-1.2-1.2v-0.933c-2.933 2-4.933 5.333-4.933 9.2h-0.267c-0.8 0-1.467 0.667-1.467 1.467s0.667 1.467 1.467 1.467h23.333z"></path>
</svg>
