<!-- Generated by IcoMoon.io -->
<svg version="1.1" xmlns="http://www.w3.org/2000/svg" width="32" height="32" viewBox="0 0 32 32">
<title>contact_phone</title>
<path d="M23.813 18.688c-0.313-0.813-0.5-1.75-0.5-2.688s0.188-1.875 0.5-2.688h2.188l2-2.625-2.625-2.688c-1.75 1.313-3.063 3.125-3.688 5.313-0.25 0.875-0.375 1.75-0.375 2.688s0.125 1.813 0.375 2.688c0.625 2.125 1.938 4 3.688 5.313l2.625-2.688-2-2.625h-2.188zM18.688 24v-1.313c0-2.688-5.313-4.125-8-4.125s-8 1.438-8 4.125v1.313h16zM10.688 8c-2.188 0-4 1.813-4 4s1.813 4 4 4 4-1.813 4-4-1.813-4-4-4zM29.313 4c1.438 0 2.688 1.25 2.688 2.688v18.625c0 1.438-1.25 2.688-2.688 2.688h-26.625c-1.438 0-2.688-1.25-2.688-2.688v-18.625c0-1.438 1.25-2.688 2.688-2.688h26.625z"></path>
</svg>
