<!-- Generated by IcoMoon.io -->
<svg version="1.1" xmlns="http://www.w3.org/2000/svg" width="32" height="32" viewBox="0 0 32 32">
<title>crop_rotate</title>
<path d="M10.688 21.313h16v2.688h-2.688v2.688h-2.688v-2.688h-10.625c-1.5 0-2.688-1.25-2.688-2.688v-10.625h-2.688v-2.688h2.688v-2.688h2.688v16zM21.313 18.688v-8h-8v-2.688h8c1.438 0 2.688 1.188 2.688 2.688v8h-2.688zM16.063 0c8.375 0 15.25 6.5 15.938 14.688h-2c-0.5-5-3.563-9.25-7.938-11.313l-1.813 1.75-5.063-5.063c0.313 0 0.563-0.063 0.875-0.063zM9.938 28.625l1.813-1.75 5.063 5.063c-0.313 0-0.563 0.063-0.875 0.063-8.375 0-15.25-6.5-15.938-14.688h2c0.5 5 3.563 9.25 7.938 11.313z"></path>
</svg>
