<!-- Generated by IcoMoon.io -->
<svg version="1.1" xmlns="http://www.w3.org/2000/svg" width="32" height="32" viewBox="0 0 32 32">
<title>devices_other</title>
<path d="M28 24v-10.688h-5.313v10.688h5.313zM29.313 10.688c0.688 0 1.375 0.625 1.375 1.313v13.313c0 0.688-0.688 1.375-1.375 1.375h-8c-0.688 0-1.313-0.688-1.313-1.375v-13.313c0-0.688 0.625-1.313 1.313-1.313h8zM14.688 23.313c1.125 0 2-0.875 2-2s-0.875-2-2-2-2 0.875-2 2 0.875 2 2 2zM17.313 16v2.375c0.813 0.75 1.375 1.75 1.375 2.938s-0.563 2.25-1.375 3v2.375h-5.313v-2.375c-0.813-0.75-1.313-1.813-1.313-3s0.5-2.188 1.313-2.938v-2.375h5.313zM4 8v16h5.313v2.688h-5.313c-1.438 0-2.688-1.25-2.688-2.688v-16c0-1.438 1.25-2.688 2.688-2.688h24v2.688h-24z"></path>
</svg>
