<!-- Generated by IcoMoon.io -->
<svg version="1.1" xmlns="http://www.w3.org/2000/svg" width="32" height="32" viewBox="0 0 32 32">
<title>directions_run</title>
<path d="M13.188 25.813l-9.313-1.813 0.5-2.688 6.563 1.313 2.125-10.813-2.438 0.938v4.563h-2.625v-6.25l6.938-2.938c0.375 0 0.688-0.125 1.063-0.125 0.938 0 1.688 0.5 2.25 1.313l1.313 2.125c1.063 1.875 3.188 3.188 5.75 3.188v2.688c-2.938 0-5.563-1.313-7.313-3.313l-0.813 4 2.813 2.625v10h-2.688v-8l-2.813-2.625zM18 7.313c-1.438 0-2.688-1.25-2.688-2.688s1.25-2.625 2.688-2.625 2.625 1.188 2.625 2.625-1.188 2.688-2.625 2.688z"></path>
</svg>
