<!-- Generated by IcoMoon.io -->
<svg version="1.1" xmlns="http://www.w3.org/2000/svg" width="32" height="32" viewBox="0 0 32 32">
<title>directions_railway</title>
<path d="M24 13.313v-6.625h-16v6.625h16zM16 22.688c1.438 0 2.688-1.25 2.688-2.688s-1.25-2.688-2.688-2.688-2.688 1.25-2.688 2.688 1.25 2.688 2.688 2.688zM5.313 20.688v-14c0-4.688 4.813-5.375 10.688-5.375s10.688 0.688 10.688 5.375v14c0 2.563-2.125 4.625-4.688 4.625l2 2v0.688h-16v-0.688l2-2c-2.563 0-4.688-2.063-4.688-4.625z"></path>
</svg>
