<!-- Generated by IcoMoon.io -->
<svg version="1.1" xmlns="http://www.w3.org/2000/svg" width="32" height="32" viewBox="0 0 32 32">
<title>directions_bus</title>
<path d="M24 14.688v-6.688h-16v6.688h16zM22 22.688c1.125 0 2-0.875 2-2s-0.875-2-2-2-2 0.875-2 2 0.875 2 2 2zM10 22.688c1.125 0 2-0.875 2-2s-0.875-2-2-2-2 0.875-2 2 0.875 2 2 2zM5.313 21.313v-13.313c0-4.688 4.813-5.313 10.688-5.313s10.688 0.625 10.688 5.313v13.313c0 1.188-0.563 2.25-1.375 3v2.375c0 0.75-0.563 1.313-1.313 1.313h-1.313c-0.75 0-1.375-0.563-1.375-1.313v-1.375h-10.625v1.375c0 0.75-0.625 1.313-1.375 1.313h-1.313c-0.75 0-1.313-0.563-1.313-1.313v-2.375c-0.813-0.75-1.375-1.813-1.375-3z"></path>
</svg>
