<!-- Generated by IcoMoon.io -->
<svg version="1.1" xmlns="http://www.w3.org/2000/svg" width="32" height="32" viewBox="0 0 32 32">
<title>directions_transit</title>
<path d="M24 14.688v-6.688h-6.688v6.688h6.688zM22 22.688c1.125 0 2-0.875 2-2s-0.875-2-2-2-2 0.875-2 2 0.875 2 2 2zM14.688 14.688v-6.688h-6.688v6.688h6.688zM10 22.688c1.125 0 2-0.875 2-2s-0.875-2-2-2-2 0.875-2 2 0.875 2 2 2zM16 2.688c5.875 0 10.688 0.625 10.688 5.313v12.688c0 2.563-2.125 4.625-4.688 4.625l2 2v0.688h-16v-0.688l2-2c-2.563 0-4.688-2.063-4.688-4.625v-12.688c0-4.688 4.813-5.313 10.688-5.313z"></path>
</svg>
