<!-- Generated by IcoMoon.io -->
<svg version="1.1" xmlns="http://www.w3.org/2000/svg" width="32" height="32" viewBox="0 0 32 32">
<title>euro_symbol</title>
<path d="M20 24.688c2.188 0 4.125-0.813 5.625-2.125l2.375 2.375c-2.125 1.938-4.938 3.063-8 3.063-5.25 0-9.688-3.375-11.313-8h-4.688v-2.688h4.063c-0.063-0.438-0.063-0.875-0.063-1.313s0-0.875 0.063-1.313h-4.063v-2.688h4.688c1.625-4.625 6.063-8 11.313-8 3.063 0 5.875 1.125 8 3.063l-2.375 2.375c-1.5-1.313-3.5-2.125-5.625-2.125-3.313 0-6.25 1.938-7.688 4.688h7.688v2.688h-8.563c-0.063 0.438-0.125 0.875-0.125 1.313s0.063 0.875 0.125 1.313h8.563v2.688h-7.688c1.438 2.75 4.313 4.688 7.688 4.688z"></path>
</svg>
