<!-- Generated by IcoMoon.io -->
<svg version="1.1" xmlns="http://www.w3.org/2000/svg" width="32" height="32" viewBox="0 0 32 32">
<title>exposure_zero</title>
<path d="M18.688 13.5c0-1.613-0.090-2.667-0.688-3.563-0.25-0.375-0.563-0.563-0.875-0.75s-0.688-0.25-1.125-0.25-0.813 0.063-1.125 0.25-0.625 0.375-0.875 0.75c-0.596 0.894-0.688 1.952-0.688 3.563v3.563c0 2.145 0.291 3.675 1.563 4.438 0.313 0.188 0.688 0.25 1.125 0.25 1.048 0 1.55-0.388 2-1.063 0.554-0.832 0.75-2.151 0.75-3.625v-3.563h-0.063zM10.5 13.938c0-4.283 1.336-7.25 5.5-7.25 2.907 0 4.49 1.495 5.125 3.875 0.25 0.938 0.438 2 0.438 3.375v2.75h-0.063c0 2.484-0.48 4.314-1.5 5.625-0.5 0.563-1.063 1.063-1.75 1.313s-1.438 0.375-2.25 0.375-1.563-0.125-2.25-0.375-1.25-0.75-1.75-1.313c-1.090-1.227-1.5-3.203-1.5-5.625v-2.75z"></path>
</svg>
