<!-- Generated by IcoMoon.io -->
<svg version="1.1" xmlns="http://www.w3.org/2000/svg" width="32" height="32" viewBox="0 0 32 32">
<title>fiber_pin</title>
<path d="M26.688 20v-8h-1.688v4.688l-3.313-4.688h-1.688v8h1.688v-4.688l3.375 4.688h1.625zM16.688 20v-8h-2v8h2zM12 15.313v-1.313c0-1.125-0.875-2-2-2h-4.688v8h2v-2.688h2.688c1.125 0 2-0.875 2-2zM26.688 5.313c1.5 0 2.625 1.188 2.625 2.688v16c0 1.5-1.125 2.688-2.625 2.688h-21.375c-1.5 0-2.625-1.188-2.625-2.688v-16c0-1.5 1.125-2.688 2.625-2.688h21.375zM7.313 14h2.688v1.313h-2.688v-1.313z"></path>
</svg>
