<!-- Generated by IcoMoon.io -->
<svg version="1.1" xmlns="http://www.w3.org/2000/svg" width="32" height="32" viewBox="0 0 32 32">
<title>filter_3</title>
<path d="M22.688 17.313c0 1.5-1.25 2.688-2.688 2.688h-5.313v-2.688h5.313v-2.625h-2.688v-2.688h2.688v-2.688h-5.313v-2.625h5.313c1.438 0 2.688 1.125 2.688 2.625v2c0 1.125-0.875 2-2 2 1.125 0 2 0.875 2 2v2zM4 6.688v21.313h21.313v2.688h-21.313c-1.438 0-2.688-1.25-2.688-2.688v-21.313h2.688zM28 22.688v-18.688h-18.688v18.688h18.688zM28 1.313c1.438 0 2.688 1.25 2.688 2.688v18.688c0 1.438-1.25 2.625-2.688 2.625h-18.688c-1.438 0-2.625-1.188-2.625-2.625v-18.688c0-1.438 1.188-2.688 2.625-2.688h18.688z"></path>
</svg>
