<!-- Generated by IcoMoon.io -->
<svg version="1.1" xmlns="http://www.w3.org/2000/svg" width="32" height="32" viewBox="0 0 32 32">
<title>filter_6</title>
<path d="M17.313 14.688v2.625h2.688v-2.625h-2.688zM17.313 20c-1.438 0-2.625-1.188-2.625-2.688v-8c0-1.5 1.188-2.625 2.625-2.625h5.375v2.625h-5.375v2.688h2.688c1.438 0 2.688 1.188 2.688 2.688v2.625c0 1.5-1.25 2.688-2.688 2.688h-2.688zM28 22.688v-18.688h-18.688v18.688h18.688zM28 1.313c1.438 0 2.688 1.25 2.688 2.688v18.688c0 1.438-1.25 2.625-2.688 2.625h-18.688c-1.438 0-2.625-1.188-2.625-2.625v-18.688c0-1.438 1.188-2.688 2.625-2.688h18.688zM4 6.688v21.313h21.313v2.688h-21.313c-1.438 0-2.688-1.25-2.688-2.688v-21.313h2.688z"></path>
</svg>
