<!-- Generated by IcoMoon.io -->
<svg version="1.1" xmlns="http://www.w3.org/2000/svg" width="32" height="32" viewBox="0 0 32 32">
<title>flip_to_back</title>
<path d="M20 22.688v-2.688h2.688v2.688h-2.688zM20 6.688v-2.688h2.688v2.688h-2.688zM6.688 9.313v16h16v2.688h-16c-1.5 0-2.688-1.25-2.688-2.688v-16h2.688zM25.313 22.688v-2.688h2.688c0 1.438-1.25 2.688-2.688 2.688zM25.313 12v-2.688h2.688v2.688h-2.688zM25.313 17.313v-2.625h2.688v2.625h-2.688zM12 22.688c-1.5 0-2.688-1.25-2.688-2.688h2.688v2.688zM17.313 4v2.688h-2.625v-2.688h2.625zM25.313 4c1.438 0 2.688 1.25 2.688 2.688h-2.688v-2.688zM17.313 20v2.688h-2.625v-2.688h2.625zM12 4v2.688h-2.688c0-1.438 1.188-2.688 2.688-2.688zM12 14.688v2.625h-2.688v-2.625h2.688zM12 9.313v2.688h-2.688v-2.688h2.688z"></path>
</svg>
