<!-- Generated by IcoMoon.io -->
<svg version="1.1" xmlns="http://www.w3.org/2000/svg" width="32" height="32" viewBox="0 0 32 32">
<title>flip_to_front</title>
<path d="M9.313 28v-2.688h2.688v2.688h-2.688zM14.688 28v-2.688h2.625v2.688h-2.625zM25.313 20v-13.313h-13.313v13.313h13.313zM25.313 4c1.438 0 2.688 1.25 2.688 2.688v13.313c0 1.438-1.25 2.688-2.688 2.688h-13.313c-1.5 0-2.688-1.25-2.688-2.688v-13.313c0-1.438 1.188-2.688 2.688-2.688h13.313zM20 28v-2.688h2.688v2.688h-2.688zM4 12v-2.688h2.688v2.688h-2.688zM6.688 28c-1.5 0-2.688-1.25-2.688-2.688h2.688v2.688zM4 22.688v-2.688h2.688v2.688h-2.688zM4 17.313v-2.625h2.688v2.625h-2.688z"></path>
</svg>
