<!-- Generated by IcoMoon.io -->
<svg version="1.1" xmlns="http://www.w3.org/2000/svg" width="32" height="32" viewBox="0 0 32 32">
<title>folder_shared</title>
<path d="M25.313 22.688v-1.375c0-1.75-3.563-2.625-5.313-2.625s-5.313 0.875-5.313 2.625v1.375h10.625zM20 12c-1.438 0-2.688 1.25-2.688 2.688s1.25 2.625 2.688 2.625 2.688-1.188 2.688-2.625-1.25-2.688-2.688-2.688zM26.688 8c1.438 0 2.625 1.25 2.625 2.688v13.313c0 1.438-1.188 2.688-2.625 2.688h-21.375c-1.438 0-2.625-1.25-2.625-2.688v-16c0-1.438 1.188-2.688 2.625-2.688h8l2.688 2.688h10.688z"></path>
</svg>
