<!-- Generated by IcoMoon.io -->
<svg version="1.1" xmlns="http://www.w3.org/2000/svg" width="32" height="32" viewBox="0 0 32 32">
<title>format_list_bulleted</title>
<path d="M9.313 6.688h18.688v2.625h-18.688v-2.625zM9.313 17.313v-2.625h18.688v2.625h-18.688zM9.313 25.313v-2.625h18.688v2.625h-18.688zM5.313 22c1.125 0 2 0.938 2 2s-0.938 2-2 2-2-0.938-2-2 0.875-2 2-2zM5.313 6c1.125 0 2 0.875 2 2s-0.875 2-2 2-2-0.875-2-2 0.875-2 2-2zM5.313 14c1.125 0 2 0.875 2 2s-0.875 2-2 2-2-0.875-2-2 0.875-2 2-2z"></path>
</svg>
