<!-- Generated by IcoMoon.io -->
<svg version="1.1" xmlns="http://www.w3.org/2000/svg" width="32" height="32" viewBox="0 0 32 32">
<title>gradient</title>
<path d="M25.313 14.688v-8h-18.625v8h2.625v2.625h2.688v2.688h2.688v-2.688h2.625v2.688h2.688v-2.688h2.688v-2.625h2.625zM22.688 24v-2.688h-2.688v2.688h2.688zM17.313 24v-2.688h-2.625v2.688h2.625zM12 24v-2.688h-2.688v2.688h2.688zM25.313 4c1.438 0 2.688 1.25 2.688 2.688v18.625c0 1.438-1.25 2.688-2.688 2.688h-18.625c-1.438 0-2.688-1.25-2.688-2.688v-18.625c0-1.438 1.25-2.688 2.688-2.688h18.625zM9.313 12h2.688v2.688h-2.688v-2.688zM20 12h2.688v2.688h-2.688v-2.688zM14.688 12h2.625v2.688h2.688v2.625h-2.688v-2.625h-2.625v2.625h-2.688v-2.625h2.688v-2.688zM22.688 17.313v2.688h2.625v-2.688h-2.625zM9.313 17.313h-2.625v2.688h2.625v-2.688z"></path>
</svg>
