<!-- Generated by IcoMoon.io -->
<svg version="1.1" xmlns="http://www.w3.org/2000/svg" width="32" height="32" viewBox="0 0 32 32">
<title>hydrant</title>
<path d="M26.111 20.822v-6.067h-3.578v-2.8h-13.222v2.8h-3.578v6.067h3.578v6.844h-3.578v2.333h20.222v-2.333h-3.578v-6.844h3.733zM16 20.822c-1.711 0-3.111-1.244-3.111-2.8s1.4-2.8 3.111-2.8c1.711 0 3.111 1.244 3.111 2.8s-1.4 2.8-3.111 2.8zM23.933 8.067h-1.556c-0.622-2.178-2.644-3.889-4.978-4.356v-1.711h-2.644v1.711c-2.489 0.467-4.356 2.178-4.978 4.356h-1.867v2.333h16.022v-2.333c0 0 0 0 0 0z"></path>
</svg>
