<!-- Generated by IcoMoon.io -->
<svg version="1.1" xmlns="http://www.w3.org/2000/svg" width="32" height="32" viewBox="0 0 32 32">
<title>memory</title>
<path d="M22.688 22.688v-13.375h-13.375v13.375h13.375zM28 14.688h-2.688v2.625h2.688v2.688h-2.688v2.688c0 1.438-1.188 2.625-2.625 2.625h-2.688v2.688h-2.688v-2.688h-2.625v2.688h-2.688v-2.688h-2.688c-1.438 0-2.625-1.188-2.625-2.625v-2.688h-2.688v-2.688h2.688v-2.625h-2.688v-2.688h2.688v-2.688c0-1.438 1.188-2.625 2.625-2.625h2.688v-2.688h2.688v2.688h2.625v-2.688h2.688v2.688h2.688c1.438 0 2.625 1.188 2.625 2.625v2.688h2.688v2.688zM17.313 17.313v-2.625h-2.625v2.625h2.625zM20 12v8h-8v-8h8z"></path>
</svg>
