<!-- Generated by IcoMoon.io -->
<svg version="1.1" xmlns="http://www.w3.org/2000/svg" width="32" height="32" viewBox="0 0 32 32">
<title>photo_size_select_small</title>
<path d="M9.313 4v2.688h-2.625v-2.688h2.625zM14.688 4v2.688h-2.688v-2.688h2.688zM4 14.688v2.625h-2.688v-2.625h2.688zM4 4v2.688h-2.688c0-1.313 1.375-2.688 2.688-2.688zM25.313 25.313v2.688h-2.625v-2.688h2.625zM25.313 4v2.688h-2.625v-2.688h2.625zM20 25.313v2.688h-2.688v-2.688h2.688zM4 9.313v2.688h-2.688v-2.688h2.688zM4 28c-1.438 0-2.688-1.25-2.688-2.688v-5.313h13.375v8h-10.688zM28 4c1.313 0 2.688 1.375 2.688 2.688h-2.688v-2.688zM30.688 9.313v2.688h-2.688v-2.688h2.688zM20 4v2.688h-2.688v-2.688h2.688zM30.688 25.313c0 1.313-1.375 2.688-2.688 2.688v-2.688h2.688zM30.688 14.688v2.625h-2.688v-2.625h2.688zM30.688 20v2.688h-2.688v-2.688h2.688z"></path>
</svg>
