<!-- Generated by IcoMoon.io -->
<svg version="1.1" xmlns="http://www.w3.org/2000/svg" width="32" height="32" viewBox="0 0 32 32">
<title>projects</title>
<path d="M16.119 2.965c-0.397-0.397-1.040-0.397-1.437 0l-2.387 2.385c-0.397 0.399-0.397 1.041 0 1.439l1.999 1.999 3.824-3.824-1.999-1.999zM19.137 5.984l-3.824 3.823 10.196 10.197h3.824v-3.824l-10.196-10.196z"></path>
<path d="M5.333 26.67v-10.667l10.667 10.667h-10.667zM23.476 23.479l-1.887 1.885-1.885-1.885 1.885-1.887-1.885-1.885-3.219 3.219-1.885-1.885 3.219-3.219-1.885-1.885-1.885 1.885-1.887-1.885 1.887-1.885-1.887-1.887-3.219 3.22-1.885-1.887 3.219-3.219-1.885-1.885-1.885 1.885-1.887-1.885 1.887-1.885-3.839-3.839v26.667h26.667l-5.857-5.857z"></path>
</svg>
