<!-- Generated by IcoMoon.io -->
<svg version="1.1" xmlns="http://www.w3.org/2000/svg" width="32" height="32" viewBox="0 0 32 32">
<title>proliability</title>
<path d="M6.533 12.667c1.467 0 2.8-1.2 2.8-2.8 0-1.467-1.2-2.8-2.8-2.8s-2.8 1.2-2.8 2.8c0.133 1.6 1.333 2.8 2.8 2.8z"></path>
<path d="M9.333 30.667v-7.333h1.867v-7.333c0-1.067-0.8-1.867-1.867-1.867h-5.6c-1.067 0-1.867 0.8-1.867 1.867v7.333h1.867v7.333h5.6z"></path>
<path d="M25.333 12.667c1.467 0 2.8-1.2 2.8-2.8 0-1.467-1.2-2.8-2.8-2.8-1.467 0-2.8 1.2-2.8 2.8s1.333 2.8 2.8 2.8z"></path>
<path d="M28.133 30.667v-7.333h1.867v-7.333c0-1.067-0.8-1.867-1.867-1.867h-5.6c-1.067 0-1.867 0.8-1.867 1.867v7.333h1.867v7.333h5.6z"></path>
<path d="M16 2.667c2.267 0 4 1.733 4 4s-1.733 4-4 4-4-1.733-4-4c0-2.267 1.733-4 4-4zM16 1.333c-2.933 0-5.333 2.4-5.333 5.333s2.4 5.333 5.333 5.333c2.933 0 5.333-2.4 5.333-5.333s-2.4-5.333-5.333-5.333v0z"></path>
<path d="M15.333 8.267h1.333v1.333h-1.333v-1.333z"></path>
<path d="M15.333 3.6h1.333v3.333h-1.333v-3.333z"></path>
</svg>
