<!-- Generated by IcoMoon.io -->
<svg version="1.1" xmlns="http://www.w3.org/2000/svg" width="32" height="32" viewBox="0 0 32 32">
<title>recent_actors</title>
<path d="M16.688 22.688v-1c0-2-4-3-6-3s-6 1-6 3v1h12zM10.688 10.313c-1.625 0-3 1.375-3 3s1.375 3 3 3 3-1.375 3-3-1.375-3-3-3zM18.688 6.688c0.75 0 1.313 0.563 1.313 1.313v16c0 0.75-0.563 1.313-1.313 1.313h-16c-0.75 0-1.375-0.563-1.375-1.313v-16c0-0.75 0.625-1.313 1.375-1.313h16zM22.688 25.313v-18.625h2.625v18.625h-2.625zM28 6.688h2.688v18.625h-2.688v-18.625z"></path>
</svg>
