<!-- Generated by IcoMoon.io -->
<svg version="1.1" xmlns="http://www.w3.org/2000/svg" width="32" height="32" viewBox="0 0 32 32">
<title>settings_input_svideo</title>
<path d="M20.688 20c1.125 0 2 0.875 2 2s-0.875 2-2 2-2-0.875-2-2 0.875-2 2-2zM23.313 13.313c1.125 0 2 0.875 2 2s-0.875 2-2 2-2-0.875-2-2 0.875-2 2-2zM16 28c6.625 0 12-5.375 12-12s-5.375-12-12-12-12 5.375-12 12 5.375 12 12 12zM16 1.313c8.063 0 14.688 6.625 14.688 14.688s-6.625 14.688-14.688 14.688-14.688-6.625-14.688-14.688 6.625-14.688 14.688-14.688zM11.313 20c1.125 0 2 0.875 2 2s-0.875 2-2 2-2-0.875-2-2 0.875-2 2-2zM20 8.688c0 1.125-0.875 2-2 2h-4c-1.125 0-2-0.875-2-2s0.875-2 2-2h4c1.125 0 2 0.875 2 2zM10.688 15.313c0 1.125-0.875 2-2 2s-2-0.875-2-2 0.875-2 2-2 2 0.875 2 2z"></path>
</svg>
