<!-- Generated by IcoMoon.io -->
<svg version="1.1" xmlns="http://www.w3.org/2000/svg" width="32" height="32" viewBox="0 0 32 32">
<title>speaker_notes</title>
<path d="M24 10.688v-2.688h-10.688v2.688h10.688zM24 14.688v-2.688h-10.688v2.688h10.688zM20 18.688v-2.688h-6.688v2.688h6.688zM10.688 10.688v-2.688h-2.688v2.688h2.688zM10.688 14.688v-2.688h-2.688v2.688h2.688zM10.688 18.688v-2.688h-2.688v2.688h2.688zM26.688 2.688c1.438 0 2.625 1.188 2.625 2.625v16c0 1.438-1.188 2.688-2.625 2.688h-18.688l-5.313 5.313v-24c0-1.438 1.188-2.625 2.625-2.625h21.375z"></path>
</svg>
