<!-- Generated by IcoMoon.io -->
<svg version="1.1" xmlns="http://www.w3.org/2000/svg" width="32" height="32" viewBox="0 0 32 32">
<title>wb_sunny</title>
<path d="M4.75 24.75l2.375-2.438 1.875 1.875-2.375 2.438zM14.688 29.938v-3.938h2.625v3.938h-2.625zM16 7.313c4.438 0 8 3.563 8 8s-3.563 8-8 8-8-3.563-8-8 3.563-8 8-8zM26.688 14h4v2.688h-4v-2.688zM23 24.188l1.875-1.813 2.375 2.375-1.875 1.875zM27.25 5.938l-2.375 2.375-1.875-1.875 2.375-2.375zM17.313 0.75v3.938h-2.625v-3.938h2.625zM5.313 14v2.688h-4v-2.688h4zM9 6.438l-1.875 1.875-2.375-2.375 1.875-1.875z"></path>
</svg>
